<svg width="399" height="220" viewBox="0 0 399 220" fill="none" xmlns="http://www.w3.org/2000/svg">
<g style="mix-blend-mode:difference">
<path d="M198 39L198 181" stroke="white" stroke-miterlimit="10"/>
</g>
<g style="mix-blend-mode:difference">
<path d="M36 25L184 25" stroke="white" stroke-width="0.5" stroke-miterlimit="10"/>
</g>
<g style="mix-blend-mode:difference">
<path d="M36 13L184 13" stroke="white" stroke-width="0.5" stroke-miterlimit="10"/>
</g>
<g style="mix-blend-mode:difference">
<path d="M379.5 2.5571e-06C375.643 2.05135e-06 371.873 1.14342 368.666 3.28611C365.459 5.42881 362.96 8.4744 361.485 12.0376C360.009 15.6007 359.622 19.5219 360.375 23.3045C361.127 27.0871 362.984 30.5613 365.711 33.2884C368.439 36.0155 371.913 37.8728 375.695 38.6252C379.478 39.3776 383.399 38.9919 386.962 37.5159C390.526 36.04 393.571 33.5405 395.714 30.3338C397.857 27.127 399 23.3568 399 19.5001C399 14.3283 396.946 9.36869 393.289 5.71172C389.632 2.05475 384.672 3.23529e-06 379.5 2.5571e-06Z" fill="white"/>
</g>
<g style="mix-blend-mode:difference">
<path d="M19.5002 2.55714e-06C15.6435 2.05139e-06 11.8733 1.14342 8.6666 3.28611C5.45987 5.42881 2.96038 8.4744 1.48449 12.0376C0.00858985 15.6007 -0.377758 19.5219 0.374647 23.3045C1.12705 27.0871 2.98429 30.5613 5.71139 33.2884C8.43849 36.0155 11.9132 37.8728 15.6958 38.6252C19.4784 39.3776 23.3988 38.9919 26.962 37.5159C30.5251 36.04 33.5707 33.5405 35.7133 30.3338C37.856 27.127 39 23.3568 39 19.5001C39 14.3283 36.9453 9.36869 33.2884 5.71172C29.6314 2.05475 24.6718 3.23532e-06 19.5002 2.55714e-06Z" fill="white"/>
</g>
<g style="mix-blend-mode:difference">
<path d="M218 20L360 20" stroke="white" stroke-miterlimit="10"/>
</g>
<g style="mix-blend-mode:difference">
<path d="M198.5 181C194.643 181 190.873 182.143 187.666 184.286C184.459 186.429 181.96 189.474 180.484 193.038C179.008 196.601 178.622 200.522 179.375 204.304C180.127 208.087 181.984 211.561 184.712 214.288C187.439 217.016 190.913 218.873 194.696 219.625C198.478 220.378 202.399 219.992 205.962 218.516C209.526 217.04 212.571 214.541 214.714 211.334C216.857 208.127 218 204.357 218 200.5C218 195.328 215.945 190.368 212.288 186.711C208.631 183.054 203.672 181 198.5 181Z" fill="white"/>
</g>
<g style="mix-blend-mode:difference">
<path d="M198.5 2.55711e-06C194.643 2.05136e-06 190.873 1.14342 187.666 3.28611C184.459 5.42881 181.96 8.4744 180.484 12.0376C179.008 15.6007 178.622 19.5219 179.375 23.3045C180.127 27.0871 181.984 30.5613 184.712 33.2884C187.439 36.0155 190.913 37.8728 194.696 38.6252C198.478 39.3776 202.399 38.9919 205.962 37.5159C209.526 36.04 212.571 33.5405 214.714 30.3338C216.857 27.127 218 23.3568 218 19.5001C218 14.3283 215.945 9.36869 212.288 5.71172C208.631 2.05475 203.672 3.2353e-06 198.5 2.55711e-06Z" fill="white"/>
</g>
</svg>
