<svg width="58" height="58" viewBox="0 0 58 58" fill="none" xmlns="http://www.w3.org/2000/svg">
<g id="Ellipse 88">
<mask id="path-1-inside-1_312_5891" fill="white">
<path d="M29 2.54707e-06C23.2643 2.79778e-06 17.6575 1.70082 12.8885 4.88739C8.11944 8.07394 4.40243 12.6031 2.20749 17.9022C0.0125507 23.2012 -0.561746 29.0322 0.557226 34.6576C1.6762 40.2831 4.43818 45.4504 8.4939 49.5061C12.5496 53.5618 17.7169 56.3238 23.3424 57.4428C28.9678 58.5617 34.7988 57.9874 40.0978 55.7925C45.3969 53.5976 49.9261 49.8806 53.1126 45.1115C56.2992 40.3425 58 34.7357 58 29L29 29L29 2.54707e-06Z"/>
</mask>
<path d="M29 2.54707e-06C23.2643 2.79778e-06 17.6575 1.70082 12.8885 4.88739C8.11944 8.07394 4.40243 12.6031 2.20749 17.9022C0.0125507 23.2012 -0.561746 29.0322 0.557226 34.6576C1.6762 40.2831 4.43818 45.4504 8.4939 49.5061C12.5496 53.5618 17.7169 56.3238 23.3424 57.4428C28.9678 58.5617 34.7988 57.9874 40.0978 55.7925C45.3969 53.5976 49.9261 49.8806 53.1126 45.1115C56.2992 40.3425 58 34.7357 58 29L29 29L29 2.54707e-06Z" stroke="white" stroke-width="2" stroke-dasharray="6 6" mask="url(#path-1-inside-1_312_5891)"/>
</g>
</svg>
