<svg width="14" height="29" viewBox="0 0 14 29" fill="none" xmlns="http://www.w3.org/2000/svg">
<mask id="path-1-inside-1_312_5123" fill="white">
<path d="M14 0.499999C10.287 0.5 6.72601 1.975 4.1005 4.6005C1.475 7.22601 -4.93935e-07 10.787 -6.11959e-07 14.5C-7.29984e-07 18.213 1.47499 21.774 4.1005 24.3995C6.72601 27.025 10.287 28.5 14 28.5L14 14.5L14 0.499999Z"/>
</mask>
<path d="M14 0.499999C10.287 0.5 6.72601 1.975 4.1005 4.6005C1.475 7.22601 -4.93935e-07 10.787 -6.11959e-07 14.5C-7.29984e-07 18.213 1.47499 21.774 4.1005 24.3995C6.72601 27.025 10.287 28.5 14 28.5L14 14.5L14 0.499999Z" fill="black" stroke="black" stroke-width="2" mask="url(#path-1-inside-1_312_5123)"/>
</svg>
