<svg width="54" height="284" viewBox="0 0 54 284" fill="none" xmlns="http://www.w3.org/2000/svg">
<rect x="0.5" y="0.5" width="53" height="283" stroke="black"/>
<path d="M37.3333 113C37.3333 114.473 38.5272 115.667 40 115.667C41.4728 115.667 42.6667 114.473 42.6667 113C42.6667 111.527 41.4728 110.333 40 110.333C38.5272 110.333 37.3333 111.527 37.3333 113ZM39.5 0.5V113H40.5V0.5H39.5Z" fill="black"/>
<path d="M24.3333 216C24.3333 217.473 25.5272 218.667 27 218.667C28.4728 218.667 29.6667 217.473 29.6667 216C29.6667 214.527 28.4728 213.333 27 213.333C25.5272 213.333 24.3333 214.527 24.3333 216ZM26.5 1V216H27.5V1H26.5Z" fill="black"/>
<path d="M12.3333 69C12.3333 70.4728 13.5272 71.6667 15 71.6667C16.4728 71.6667 17.6667 70.4728 17.6667 69C17.6667 67.5272 16.4728 66.3333 15 66.3333C13.5272 66.3333 12.3333 67.5272 12.3333 69ZM14.5 69V284H15.5V69H14.5Z" fill="black"/>
</svg>
