<svg width="139" height="1169" viewBox="0 0 139 1169" fill="none" xmlns="http://www.w3.org/2000/svg">
<path d="M1.5 40.5C1.5 40.2239 1.27614 40 1 40C0.723858 40 0.5 40.2239 0.5 40.5H1.5ZM1 276H0.5C0.5 276.058 0.510057 276.115 0.529723 276.17L1 276ZM33.5 366H34C34 365.942 33.9899 365.885 33.9703 365.83L33.5 366ZM30.8333 467.5C30.8333 468.973 32.0272 470.167 33.5 470.167C34.9728 470.167 36.1667 468.973 36.1667 467.5C36.1667 466.027 34.9728 464.833 33.5 464.833C32.0272 464.833 30.8333 466.027 30.8333 467.5ZM0.5 40.5V276H1.5V40.5H0.5ZM0.529723 276.17L33.0297 366.17L33.9703 365.83L1.47028 275.83L0.529723 276.17ZM33 366V467.5H34V366H33Z" fill="#0E0E0E"/>
<path d="M17.5 41C17.5 40.7239 17.2761 40.5 17 40.5C16.7239 40.5 16.5 40.7239 16.5 41H17.5ZM17 276.5H16.5C16.5 276.558 16.5101 276.615 16.5297 276.67L17 276.5ZM49.5 366.5H50C50 366.442 49.9899 366.385 49.9703 366.33L49.5 366.5ZM46.8333 468C46.8333 469.473 48.0272 470.667 49.5 470.667C50.9728 470.667 52.1667 469.473 52.1667 468C52.1667 466.527 50.9728 465.333 49.5 465.333C48.0272 465.333 46.8333 466.527 46.8333 468ZM16.5 41V276.5H17.5V41H16.5ZM16.5297 276.67L49.0297 366.67L49.9703 366.33L17.4703 276.33L16.5297 276.67ZM49 366.5V468H50V366.5H49Z" fill="#0E0E0E"/>
<path d="M103.5 700C103.5 699.724 103.276 699.5 103 699.5C102.724 699.5 102.5 699.724 102.5 700H103.5ZM103 935.5H102.5C102.5 935.558 102.51 935.615 102.53 935.67L103 935.5ZM135.5 1025.5H136C136 1025.44 135.99 1025.38 135.97 1025.33L135.5 1025.5ZM132.833 1127C132.833 1128.47 134.027 1129.67 135.5 1129.67C136.973 1129.67 138.167 1128.47 138.167 1127C138.167 1125.53 136.973 1124.33 135.5 1124.33C134.027 1124.33 132.833 1125.53 132.833 1127ZM102.5 700V935.5H103.5V700H102.5ZM102.53 935.67L135.03 1025.67L135.97 1025.33L103.47 935.33L102.53 935.67ZM135 1025.5V1127H136V1025.5H135Z" fill="#0E0E0E"/>
<path d="M85.5 714C85.5 713.724 85.2761 713.5 85 713.5C84.7239 713.5 84.5 713.724 84.5 714H85.5ZM85 949.5H84.5C84.5 949.558 84.5101 949.615 84.5297 949.67L85 949.5ZM117.5 1039.5H118C118 1039.44 117.99 1039.38 117.97 1039.33L117.5 1039.5ZM114.833 1141C114.833 1142.47 116.027 1143.67 117.5 1143.67C118.973 1143.67 120.167 1142.47 120.167 1141C120.167 1139.53 118.973 1138.33 117.5 1138.33C116.027 1138.33 114.833 1139.53 114.833 1141ZM84.5 714V949.5H85.5V714H84.5ZM84.5297 949.67L117.03 1039.67L117.97 1039.33L85.4703 949.33L84.5297 949.67ZM117 1039.5V1141H118V1039.5H117Z" fill="#0E0E0E"/>
<path d="M63.5 739C63.5 738.724 63.2761 738.5 63 738.5C62.7239 738.5 62.5 738.724 62.5 739H63.5ZM63 974.5H62.5C62.5 974.558 62.5101 974.615 62.5297 974.67L63 974.5ZM95.5 1064.5H96C96 1064.44 95.9899 1064.38 95.9703 1064.33L95.5 1064.5ZM92.8333 1166C92.8333 1167.47 94.0272 1168.67 95.5 1168.67C96.9728 1168.67 98.1667 1167.47 98.1667 1166C98.1667 1164.53 96.9728 1163.33 95.5 1163.33C94.0272 1163.33 92.8333 1164.53 92.8333 1166ZM62.5 739V974.5H63.5V739H62.5ZM62.5297 974.67L95.0297 1064.67L95.9703 1064.33L63.4703 974.33L62.5297 974.67ZM95 1064.5V1166H96V1064.5H95Z" fill="#0E0E0E"/>
<path d="M121.5 37C121.5 36.7239 121.276 36.5 121 36.5C120.724 36.5 120.5 36.7239 120.5 37H121.5ZM121 678.061L121.353 678.416C121.447 678.322 121.5 678.194 121.5 678.061H121ZM63 735.747L62.6474 735.392C62.5531 735.486 62.5 735.614 62.5 735.747H63ZM60.3333 970C60.3333 971.473 61.5272 972.667 63 972.667C64.4728 972.667 65.6667 971.473 65.6667 970C65.6667 968.527 64.4728 967.333 63 967.333C61.5272 967.333 60.3333 968.527 60.3333 970ZM120.5 37V678.061H121.5V37H120.5ZM120.647 677.707L62.6474 735.392L63.3526 736.101L121.353 678.416L120.647 677.707ZM62.5 735.747V970H63.5V735.747H62.5Z" fill="#0E0E0E"/>
<path d="M104 31C104 30.7239 103.776 30.5 103.5 30.5C103.224 30.5 103 30.7239 103 31H104ZM103.5 670L103.854 670.354C103.947 670.26 104 670.133 104 670H103.5ZM46 727.5L45.6464 727.146C45.5527 727.24 45.5 727.367 45.5 727.5H46ZM43.3333 961C43.3333 962.473 44.5272 963.667 46 963.667C47.4728 963.667 48.6667 962.473 48.6667 961C48.6667 959.527 47.4728 958.333 46 958.333C44.5272 958.333 43.3333 959.527 43.3333 961ZM103 31V670H104V31H103ZM103.146 669.646L45.6464 727.146L46.3536 727.854L103.854 670.354L103.146 669.646ZM45.5 727.5V961H46.5V727.5H45.5Z" fill="#0E0E0E"/>
<path d="M86 16C86 15.7239 85.7761 15.5 85.5 15.5C85.2239 15.5 85 15.7239 85 16H86ZM85.5 655L85.8536 655.354C85.9473 655.26 86 655.133 86 655H85.5ZM28 712.5L27.6464 712.146C27.5527 712.24 27.5 712.367 27.5 712.5H28ZM25.3333 946C25.3333 947.473 26.5272 948.667 28 948.667C29.4728 948.667 30.6667 947.473 30.6667 946C30.6667 944.527 29.4728 943.333 28 943.333C26.5272 943.333 25.3333 944.527 25.3333 946ZM85 16V655H86V16H85ZM85.1464 654.646L27.6464 712.146L28.3536 712.854L85.8536 655.354L85.1464 654.646ZM27.5 712.5V946H28.5V712.5H27.5Z" fill="#0E0E0E"/>
<path d="M68 1C68 0.723858 67.7761 0.5 67.5 0.5C67.2239 0.5 67 0.723858 67 1H68ZM67.5 640L67.8536 640.354C67.9473 640.26 68 640.133 68 640H67.5ZM10 697.5L9.64645 697.146C9.55268 697.24 9.5 697.367 9.5 697.5H10ZM7.33333 931C7.33333 932.473 8.52724 933.667 10 933.667C11.4728 933.667 12.6667 932.473 12.6667 931C12.6667 929.527 11.4728 928.333 10 928.333C8.52724 928.333 7.33333 929.527 7.33333 931ZM67 1V640H68V1H67ZM67.1464 639.646L9.64645 697.146L10.3536 697.854L67.8536 640.354L67.1464 639.646ZM9.5 697.5V931H10.5V697.5H9.5Z" fill="#0E0E0E"/>
</svg>
