<svg width="28" height="32" viewBox="0 0 28 32" fill="none" xmlns="http://www.w3.org/2000/svg">
<path d="M14.2686 1.06055L1.26855 6.56055L14.2686 12.0605L27.2686 6.56055L14.2686 1.06055Z" stroke="black" stroke-linejoin="round"/>
<path d="M7.58877 14.005L3.36048 15.7529L2.80161 15.9839L3.36047 16.2149L13.673 20.4785L13.7686 20.518L13.8641 20.4785L24.1766 16.2149L24.7355 15.9839L24.1766 15.7529L19.9483 14.005L21.5795 13.331L26.6259 15.4164L26.6263 15.4166C26.7446 15.4652 26.844 15.5456 26.9132 15.6466C26.9823 15.7475 27.0186 15.8648 27.0186 15.9839C27.0186 16.103 26.9823 16.2203 26.9132 16.3212C26.844 16.4222 26.7446 16.5026 26.6263 16.5512L26.6259 16.5514L14.0276 21.7593L14.0276 21.7593C13.946 21.793 13.8579 21.8105 13.7686 21.8105C13.6793 21.8105 13.5911 21.793 13.5095 21.7593L13.5095 21.7593L0.911259 16.5514L0.910769 16.5512C0.792537 16.5026 0.693143 16.4222 0.623944 16.3212C0.554822 16.2203 0.518555 16.103 0.518555 15.9839C0.518555 15.8648 0.554822 15.7475 0.623944 15.6466C0.693143 15.5456 0.792537 15.4652 0.910769 15.4166L0.911231 15.4164L5.95765 13.331L7.58877 14.005Z" fill="black" stroke="white" stroke-width="0.5"/>
<path d="M0.623944 24.6466C0.554822 24.7475 0.518555 24.8648 0.518555 24.9839C0.518555 25.103 0.554822 25.2203 0.623944 25.3212C0.693142 25.4222 0.792536 25.5026 0.910769 25.5512L0.911259 25.5514L13.5095 30.7593L13.5095 30.7593C13.5911 30.793 13.6793 30.8105 13.7686 30.8105C13.8579 30.8105 13.946 30.793 14.0276 30.7593L14.0276 30.7593L26.6259 25.5514L26.6263 25.5512C26.7446 25.5026 26.844 25.4222 26.9132 25.3212L27.1194 25.4625L26.9132 25.3212C26.9823 25.2203 27.0186 25.103 27.0186 24.9839C27.0186 24.8648 26.9823 24.7475 26.9132 24.6466L27.1194 24.5053L26.9132 24.6466C26.844 24.5456 26.7446 24.4652 26.6263 24.4166L26.6259 24.4164L21.5795 22.331L19.9483 23.005L24.1766 24.7529L24.7355 24.9839L24.1766 25.2149L13.8641 29.4785L13.7686 29.518L13.673 29.4785L3.36047 25.2149L2.80161 24.9839L3.36048 24.7529L7.58877 23.005L5.95765 22.331L0.911231 24.4164L0.910769 24.4166C0.792536 24.4652 0.693142 24.5456 0.623944 24.6466ZM0.623944 24.6466L0.417716 24.5053L0.623944 24.6466Z" fill="black" stroke="white" stroke-width="0.5"/>
</svg>
