<svg width="29" height="33" viewBox="0 0 29 33" fill="none" xmlns="http://www.w3.org/2000/svg">
<path d="M27.2179 18.0966C27.8366 19.1519 28.2404 20.3192 28.4062 21.5313C28.5719 22.7433 28.4962 23.9761 28.1835 25.1588C27.8709 26.3415 27.3273 27.4506 26.5842 28.4224C25.8412 29.3942 24.9132 30.2093 23.8538 30.821C22.7944 31.4327 21.6244 31.8288 20.4113 31.9864C19.1982 32.1441 17.9659 32.0603 16.7853 31.7398C15.6048 31.4192 14.4992 30.8684 13.5324 30.1189C12.5656 29.3693 11.7566 28.436 11.152 27.3726M27.2179 18.0966C25.9791 15.9835 23.9548 14.4461 21.5867 13.8201C19.2186 13.194 16.6989 13.53 14.5776 14.7547C12.4564 15.9795 10.9056 17.9936 10.2638 20.3575C9.62204 22.7214 9.94132 25.2432 11.152 27.3726M27.2179 18.0966L11.152 27.3726M11.5261 6.56816L19.3875 1.92246C22.2816 0.212595 25.9827 1.22676 27.6539 4.19043C28.2925 5.32439 28.5648 6.62814 28.4333 7.92293C28.3018 9.21771 27.7731 10.4401 26.9195 11.4226M11.5261 6.56816L3.66475 11.2139C0.77066 12.9237 -0.221867 16.7114 1.44935 19.6735C1.91635 20.5137 2.57745 21.23 3.37751 21.7627C4.17758 22.2955 5.09342 22.6292 6.04867 22.7361M11.5261 6.56816L13.7786 10.3682" stroke="black" stroke-linecap="round" stroke-linejoin="round"/>
</svg>
