<svg width="122" height="476" viewBox="0 0 122 476" fill="none" xmlns="http://www.w3.org/2000/svg">
<path d="M1 3V2.5H0.5V3H1ZM1 473H0.5V473.5H1V473ZM116.333 473C116.333 474.473 117.527 475.667 119 475.667C120.473 475.667 121.667 474.473 121.667 473C121.667 471.527 120.473 470.333 119 470.333C117.527 470.333 116.333 471.527 116.333 473ZM43.8333 3C43.8333 4.47276 45.0272 5.66667 46.5 5.66667C47.9728 5.66667 49.1667 4.47276 49.1667 3C49.1667 1.52724 47.9728 0.333333 46.5 0.333333C45.0272 0.333333 43.8333 1.52724 43.8333 3ZM0.5 3V473H1.5V3H0.5ZM1 473.5H119V472.5H1V473.5ZM1 3.5H46.5V2.5H1V3.5Z" fill="black"/>
</svg>
