<svg width="98" height="98" viewBox="0 0 98 98" fill="none" xmlns="http://www.w3.org/2000/svg">
<circle cx="49" cy="49" r="48.5" stroke="white"/>
<g clip-path="url(#clip0_292_3169)">
<path d="M56.8116 47.715C56.8116 47.715 48.9991 54.0005 48.9991 65M42.946 40.0562C44.82 38.1704 45.8726 35.6134 45.8726 32.9473C45.8726 30.2813 44.82 27.7243 42.946 25.8385C37.0554 19.9144 24.0962 21.0961 24.0962 21.0961C24.0962 21.0961 22.9181 34.129 28.8086 40.053C30.6838 41.9376 33.2263 42.9962 35.8773 42.9962C38.5283 42.9962 41.0709 41.9407 42.946 40.0562ZM57.7584 46.7628C58.5537 47.5638 59.4982 48.1993 60.5379 48.6329C61.5777 49.0665 62.6922 49.2897 63.8178 49.2897C64.9433 49.2897 66.0579 49.0665 67.0976 48.6329C68.1373 48.1993 69.0818 47.5638 69.8771 46.7628C74.927 41.6841 73.9177 30.5149 73.9177 30.5149C73.9177 30.5149 62.8084 29.4966 57.7615 34.5753C56.965 35.375 56.3331 36.3249 55.902 37.3706C55.4708 38.4162 55.2489 39.537 55.2489 40.669C55.2489 41.801 55.4708 42.9218 55.902 43.9675C56.3331 45.0131 56.9619 45.963 57.7584 46.7628Z" stroke="white" stroke-linecap="round" stroke-linejoin="round"/>
<path d="M43 41C43 41 49 49 49 65" stroke="white" stroke-linecap="round" stroke-linejoin="round"/>
<path d="M84 80C79.5906 75.2639 74.1934 71.4795 68.1618 68.8946C62.1302 66.3097 55.6004 64.9826 49 65.0002C42.3996 64.9826 35.8698 66.3097 29.8382 68.8946C23.8066 71.4795 18.4094 75.2639 14 80" stroke="white" stroke-linecap="round" stroke-linejoin="round"/>
</g>
<defs>
<clipPath id="clip0_292_3169">
<rect width="68" height="68" fill="white" transform="translate(15 15)"/>
</clipPath>
</defs>
</svg>
