<svg width="1025" height="126" viewBox="0 0 1025 126" fill="none" xmlns="http://www.w3.org/2000/svg">
<path d="M125.184 60H121.776V53.616L132 26.832H136.32L146.544 53.568V60H143.184V53.952L141.648 49.968H126.72L125.184 53.952V60ZM134.16 30.192L127.728 46.944H140.64L134.16 30.192ZM152.679 62.064H155.847V66.72H167.943V58.8H154.887L152.151 56.112V37.152L154.887 34.416H165.687L168.183 36.96V34.416H171.207V66.96L168.519 69.648H155.367L152.679 66.96V62.064ZM155.415 37.536V55.92H167.943V39.984L165.255 37.536H155.415ZM182.135 60H178.871V34.416H181.895V37.584L185.063 34.416H191.015V37.536H185.447L182.135 40.704V60ZM198.547 29.136H195.043V25.584H198.547V29.136ZM198.451 60H195.187V34.416H198.451V60ZM221.126 56.928V51.264H224.342V57.264L221.654 60H208.934L206.198 57.264V37.152L208.934 34.416H221.654L224.342 37.152V43.152H221.126V37.488H209.462V56.928H221.126ZM244.568 60H234.2L231.512 57.264V34.416H234.776V56.928H244.136L246.872 54.48V34.416H250.136V60H247.112V57.456L244.568 60ZM261.073 60H257.809V24.816H261.073V60ZM279.915 60H272.187L269.451 57.264V37.296H265.803V34.416H269.451V29.472H272.715V34.416H279.243V37.296H272.715V56.928H279.915V60ZM297.865 60H287.497L284.809 57.264V34.416H288.073V56.928H297.433L300.169 54.48V34.416H303.433V60H300.409V57.456L297.865 60ZM314.37 60H311.106V34.416H314.13V37.584L317.298 34.416H323.25V37.536H317.682L314.37 40.704V60ZM342.302 57.072V51.552H345.518V57.264L342.83 60H329.966L327.23 57.264V37.152L329.966 34.416H342.83L345.518 37.152V47.904H330.493V57.072H342.302ZM342.302 37.344H330.493V45.408H342.302V37.344ZM372.424 60H368.584L362.104 39.648V34.416H365.368V39.024L370.696 56.448L377.128 39.024V34.416H380.392V39.024L386.872 56.352L392.152 39.024V34.416H395.416V39.648L388.936 60H385.096L378.808 43.056L372.424 60ZM418.964 37.152V60H416.084V57.408L413.492 60H403.268L400.532 57.264V48.624L403.268 45.888H415.748V37.392H403.844V41.568H400.676V37.152L403.412 34.416H416.276L418.964 37.152ZM415.748 48.432H403.748V57.12H413.012L415.748 54.672V48.432ZM442.061 57.168V53.952L426.893 42V37.152L429.629 34.416H442.253L444.941 37.152V42.48H441.773V37.248H430.157V40.464L445.325 52.416V57.264L442.637 60H429.389L426.653 57.264V52.752H429.821V57.168H442.061ZM463.852 60H456.124L453.388 57.264V37.296H449.74V34.416H453.388V29.472H456.652V34.416H463.18V37.296H456.652V56.928H463.852V60ZM483.302 57.072V51.552H486.518V57.264L483.83 60H470.966L468.23 57.264V37.152L470.966 34.416H483.83L486.518 37.152V47.904H471.493V57.072H483.302ZM483.302 37.344H471.493V45.408H483.302V37.344Z" fill="white"/>
<path d="M991 40L999.5 48L1008 40" stroke="white"/>
<path d="M43 99L68.3168 125H1025" stroke="white"/>
<circle cx="49" cy="49" r="48.5" stroke="white"/>
<g clip-path="url(#clip0_293_3448)">
<path d="M56.8116 47.715C56.8116 47.715 48.9991 54.0005 48.9991 65M42.946 40.0562C44.82 38.1704 45.8726 35.6134 45.8726 32.9473C45.8726 30.2813 44.82 27.7243 42.946 25.8385C37.0554 19.9144 24.0962 21.0961 24.0962 21.0961C24.0962 21.0961 22.9181 34.129 28.8086 40.053C30.6838 41.9376 33.2263 42.9962 35.8773 42.9962C38.5283 42.9962 41.0709 41.9407 42.946 40.0562ZM57.7584 46.7628C58.5537 47.5638 59.4982 48.1993 60.5379 48.6329C61.5777 49.0665 62.6922 49.2897 63.8178 49.2897C64.9433 49.2897 66.0579 49.0665 67.0976 48.6329C68.1373 48.1993 69.0818 47.5638 69.8771 46.7628C74.927 41.6841 73.9177 30.5149 73.9177 30.5149C73.9177 30.5149 62.8084 29.4966 57.7615 34.5753C56.965 35.375 56.3331 36.3249 55.902 37.3706C55.4708 38.4162 55.2489 39.537 55.2489 40.669C55.2489 41.801 55.4708 42.9218 55.902 43.9675C56.3331 45.0131 56.9619 45.963 57.7584 46.7628Z" stroke="white" stroke-linecap="round" stroke-linejoin="round"/>
<path d="M43 41C43 41 49 49 49 65" stroke="white" stroke-linecap="round" stroke-linejoin="round"/>
<path d="M84 80C79.5906 75.2639 74.1934 71.4795 68.1618 68.8946C62.1302 66.3097 55.6004 64.9826 49 65.0002C42.3996 64.9826 35.8698 66.3097 29.8382 68.8946C23.8066 71.4795 18.4094 75.2639 14 80" stroke="white" stroke-linecap="round" stroke-linejoin="round"/>
</g>
<defs>
<clipPath id="clip0_293_3448">
<rect width="68" height="68" fill="white" transform="translate(15 15)"/>
</clipPath>
</defs>
</svg>
