<svg width="1025" height="125" viewBox="0 0 1025 125" fill="none" xmlns="http://www.w3.org/2000/svg">
<path d="M124.416 65V31.832H127.824V46.712H144.912V31.832H148.32V65H144.912V49.832H127.824V65H124.416ZM171.348 62.072V56.552H174.564V62.264L171.876 65H159.012L156.276 62.264V42.152L159.012 39.416H171.876L174.564 42.152V52.904H159.54V62.072H171.348ZM171.348 42.344H159.54V50.408H171.348V42.344ZM199.917 42.152V65H197.037V62.408L194.445 65H184.221L181.485 62.264V53.624L184.221 50.888H196.701V42.392H184.797V46.568H181.629V42.152L184.365 39.416H197.229L199.917 42.152ZM196.701 53.432H184.701V62.12H193.965L196.701 59.672V53.432ZM217.35 65H213.366L205.542 44.648V39.416H208.806V44.024L215.382 61.448L221.958 44.024V39.416H225.222V44.648L217.35 65ZM231.336 67.064H234.504V71.72H246.6V63.8H233.544L230.856 61.112V39.416H234.12V60.824H246.6V39.416H249.864V71.96L247.176 74.648H234.024L231.336 71.96V67.064ZM272.042 65H268.778V39.416H271.802V41.96L274.298 39.416H283.946L285.77 41.24L287.546 39.416H298.97L301.706 42.152V65H298.442V42.536H287.018V65H283.754V42.536H274.778L272.042 44.984V65ZM324.395 62.072V56.552H327.611V62.264L324.923 65H312.059L309.323 62.264V42.152L312.059 39.416H324.923L327.611 42.152V52.904H312.587V62.072H324.395ZM324.395 42.344H312.587V50.408H324.395V42.344ZM346.196 65H338.468L335.732 62.264V42.296H332.084V39.416H335.732V34.472H338.996V39.416H345.524V42.296H338.996V61.928H346.196V65ZM368.573 42.152V65H365.693V62.408L363.101 65H352.877L350.141 62.264V53.624L352.877 50.888H365.357V42.392H353.453V46.568H350.285V42.152L353.021 39.416H365.885L368.573 42.152ZM365.357 53.432H353.357V62.12H362.621L365.357 59.672V53.432ZM379.526 65H376.262V29.816H379.526V65ZM406.69 65H402.85L396.37 44.648V39.416H399.634V44.024L404.962 61.448L411.394 44.024V39.416H414.658V44.024L421.138 61.352L426.418 44.024V39.416H429.682V44.648L423.202 65H419.362L413.074 48.056L406.69 65ZM453.23 42.152V65H450.35V62.408L447.758 65H437.534L434.798 62.264V53.624L437.534 50.888H450.014V42.392H438.11V46.568H434.942V42.152L437.678 39.416H450.542L453.23 42.152ZM450.014 53.432H438.014V62.12H447.278L450.014 59.672V53.432ZM476.326 62.168V58.952L461.158 47V42.152L463.894 39.416H476.518L479.206 42.152V47.48H476.038V42.248H464.422V45.464L479.59 57.416V62.264L476.902 65H463.654L460.918 62.264V57.752H464.086V62.168H476.326ZM498.118 65H490.39L487.654 62.264V42.296H484.006V39.416H487.654V34.472H490.918V39.416H497.446V42.296H490.918V61.928H498.118V65ZM517.567 62.072V56.552H520.783V62.264L518.095 65H505.231L502.495 62.264V42.152L505.231 39.416H518.095L520.783 42.152V52.904H505.759V62.072H517.567ZM517.567 42.344H505.759V50.408H517.567V42.344Z" fill="white"/>
<path d="M991 43L999.5 51L1008 43" stroke="white"/>
<path d="M43 98L68.3168 124H1025" stroke="white"/>
<circle cx="49" cy="49" r="48.5" stroke="white"/>
<path d="M53.7073 48.5917L56.7394 27.3748C56.7394 27.3744 56.7395 27.3741 56.7395 27.3738C56.8329 26.7421 57.1495 26.1648 57.632 25.7466C58.1146 25.3282 58.7311 25.0966 59.3698 25.0938H63.7571C64.3958 25.0966 65.0123 25.3282 65.4949 25.7466C65.9774 26.1649 66.294 26.7422 66.3874 27.3738C66.3874 27.3741 66.3875 27.3744 66.3875 27.3748L70.019 52.8264C70.021 52.8568 70.0209 52.8873 70.0185 52.9177L70.0177 52.9276V52.9375V71.3438V71.5922L70.2661 71.5937L91.0161 71.7222L91.0214 71.7222C91.1167 71.7207 91.2113 71.7383 91.2998 71.7738C91.3882 71.8092 91.4687 71.862 91.5366 71.9288C91.6045 71.9957 91.6584 72.0754 91.6952 72.1634C91.732 72.2513 91.7509 72.3456 91.7509 72.4409C91.7509 72.6316 91.6752 72.8144 91.5404 72.9492C91.4057 73.0839 91.2231 73.1596 91.0326 73.1597C91.0325 73.1597 91.0323 73.1597 91.0322 73.1597L7.2582 73.0312H7.25781C7.06719 73.0312 6.88437 72.9555 6.74958 72.8207C6.61479 72.6859 6.53906 72.5031 6.53906 72.3125C6.53906 72.1219 6.61479 71.9391 6.74958 71.8043C6.88437 71.6695 7.06719 71.5938 7.25781 71.5938H25.7196H25.9696V71.3438V41.3125C25.9696 41.179 26.0068 41.0482 26.077 40.9346C26.1472 40.8211 26.2476 40.7293 26.3669 40.6696C26.4863 40.6099 26.62 40.5847 26.7529 40.5967C26.8859 40.6086 27.0128 40.6574 27.1196 40.7375L41.0697 51.2L41.4697 51.5V51V41.3125C41.4697 41.179 41.5068 41.0482 41.577 40.9346C41.6472 40.8211 41.7476 40.7293 41.867 40.6696C41.9864 40.6099 42.12 40.5847 42.253 40.5967C42.3859 40.6086 42.5129 40.6574 42.6197 40.7375L53.3098 48.7563L53.6476 49.0097L53.7073 48.5917ZM54.9803 49.8458L54.9595 49.9923L55.0778 50.0811L57.8605 52.1687L57.9272 52.2188H58.0106H68.197H68.4853L68.4444 51.9333L64.9594 27.5765L64.9593 27.5763C64.9173 27.2841 64.7705 27.017 64.5464 26.8248C64.3225 26.6328 64.0367 26.5286 63.7419 26.5312H59.3704C59.0756 26.5286 58.7898 26.6328 58.566 26.8248C58.3419 27.017 58.1951 27.2841 58.153 27.5763L58.153 27.5767L54.9803 49.8458ZM27.4071 71.3438V71.5938H27.6571H68.3447H68.5947V71.3438V53.9062V53.6562H68.3447H57.6885C57.5329 53.6562 57.3816 53.6058 57.2572 53.5125L43.3072 43.05L42.9072 42.75V43.25V52.9375C42.9072 53.071 42.87 53.2018 42.7998 53.3154C42.7297 53.4289 42.6293 53.5207 42.5099 53.5804C42.3905 53.6401 42.2568 53.6653 42.1239 53.6533C41.9909 53.6414 41.8639 53.5926 41.7572 53.5125L27.8071 43.05L27.4071 42.75V43.25V71.3438ZM43.8759 62.625C43.8759 62.8156 43.8002 62.9984 43.6654 63.1332C43.5306 63.268 43.3478 63.3438 43.1572 63.3438H36.3759C36.1852 63.3438 36.0024 63.268 35.8676 63.1332C35.7328 62.9984 35.6571 62.8156 35.6571 62.625C35.6571 62.4344 35.7328 62.2516 35.8676 62.1168C36.0024 61.982 36.1852 61.9062 36.3759 61.9062H43.1572C43.3478 61.9062 43.5306 61.982 43.6654 62.1168C43.8002 62.2516 43.8759 62.4344 43.8759 62.625ZM52.8447 61.9062H59.626C59.8166 61.9062 59.9994 61.982 60.1342 62.1168C60.269 62.2516 60.3447 62.4344 60.3447 62.625C60.3447 62.8156 60.269 62.9984 60.1342 63.1332C59.9994 63.268 59.8166 63.3438 59.626 63.3438H52.8447C52.6541 63.3438 52.4713 63.268 52.3365 63.1332C52.2017 62.9984 52.126 62.8156 52.126 62.625C52.126 62.4344 52.2017 62.2516 52.3365 62.1168C52.4713 61.982 52.6541 61.9062 52.8447 61.9062Z" fill="white" stroke="black" stroke-width="0.5"/>
</svg>
