<svg width="518" height="122" viewBox="0 0 518 122" fill="none" xmlns="http://www.w3.org/2000/svg">
<path d="M76 113.5L75.584 113.777L75.7324 114H76V113.5ZM239.333 113.5C239.333 114.973 240.527 116.167 242 116.167C243.473 116.167 244.667 114.973 244.667 113.5C244.667 112.027 243.473 110.833 242 110.833C240.527 110.833 239.333 112.027 239.333 113.5ZM0.583975 1.27735L75.584 113.777L76.416 113.223L1.41603 0.72265L0.583975 1.27735ZM76 114H242V113H76V114Z" fill="white"/>
<path d="M104.333 60C104.333 61.4728 105.527 62.6667 107 62.6667C108.473 62.6667 109.667 61.4728 109.667 60C109.667 58.5272 108.473 57.3333 107 57.3333C105.527 57.3333 104.333 58.5272 104.333 60ZM40 60.5H107V59.5H40V60.5Z" fill="white"/>
<a href="/pollutants" style="pointer-events: bounding-box;" target="_blank" rel="noopener noreferrer" id="thorium">
<path d="M140.778 64H139.5V53.11H135.234V51.94H145.062V53.11H140.778V64ZM147.987 64H146.691V51.94H147.987V56.764H148.059C148.401 55.918 149.319 54.928 151.119 54.928C153.441 54.928 154.431 56.476 154.431 58.51V64H153.153V58.834C153.153 56.908 152.505 56.062 150.705 56.062C148.923 56.062 147.987 56.89 147.987 58.888V64ZM160.982 64.18C158.372 64.18 156.662 62.254 156.662 59.554C156.662 56.854 158.372 54.928 160.982 54.928C163.574 54.928 165.23 56.854 165.23 59.554C165.23 62.254 163.574 64.18 160.982 64.18ZM160.982 63.028C163.124 63.028 163.97 61.768 163.97 59.554C163.97 57.34 163.124 56.098 160.982 56.098C158.804 56.098 157.94 57.34 157.94 59.554C157.94 61.768 158.804 63.028 160.982 63.028ZM168.631 64H167.335V55H168.505V56.494H168.595C168.883 55.666 169.747 54.928 171.061 54.928C172.897 54.928 173.599 56.242 173.599 57.772V58.276H172.303V57.97C172.303 56.584 171.871 56.044 170.593 56.044C169.207 56.044 168.631 56.674 168.631 58.114V64ZM176.57 53.92H175.292V51.94H176.57V53.92ZM176.57 64H175.292V55H176.57V64ZM182.415 64.18C180.093 64.18 179.013 62.578 179.013 60.454V55.108H180.309V60.274C180.309 62.2 181.083 63.046 182.829 63.046C184.467 63.046 185.583 62.182 185.583 60.094V55.108H186.861V64H185.691V62.038H185.637C185.277 63.064 184.269 64.18 182.415 64.18ZM190.73 64H189.434V55.108H190.604V56.944H190.658C191 56.008 191.936 54.928 193.772 54.928C195.392 54.928 196.364 55.702 196.76 56.962H196.814C197.174 56.008 198.092 54.928 199.928 54.928C202.214 54.928 203.258 56.404 203.258 58.528V64H201.98V58.834C201.98 56.908 201.332 56.062 199.532 56.062C197.84 56.062 196.994 56.89 196.994 58.87V64H195.716V58.834C195.716 56.908 195.086 56.062 193.286 56.062C191.594 56.062 190.73 56.89 190.73 58.87V64ZM210.827 65.8H209.621V50.14H210.827V65.8ZM222.388 64.18C218.968 64.18 216.898 61.732 216.898 57.97C216.898 54.208 218.968 51.76 222.388 51.76C225.34 51.76 227.338 53.506 227.338 56.242V56.386H225.97V56.242C225.97 54.118 224.836 53.002 222.316 53.002C219.49 53.002 218.248 54.622 218.248 57.97C218.248 61.318 219.49 62.938 222.316 62.938C224.836 62.938 225.97 61.822 225.97 59.698V59.554H227.338V59.698C227.338 62.434 225.34 64.18 222.388 64.18ZM232.023 64.18C230.403 64.18 229.179 63.352 229.179 61.858C229.179 60.31 230.331 59.626 232.275 59.356L235.407 58.924V58.276C235.407 56.71 234.741 56.08 233.067 56.08C231.447 56.08 230.691 56.71 230.691 58.132V58.402H229.449V58.258C229.449 56.404 230.871 54.928 233.175 54.928C235.551 54.928 236.631 56.458 236.631 58.438V64H235.461V62.362L235.371 62.344C234.849 63.37 233.715 64.18 232.023 64.18ZM230.439 61.768C230.439 62.686 231.015 63.1 232.383 63.1C233.913 63.1 235.407 62.308 235.407 60.202V59.896L232.383 60.328C230.961 60.526 230.439 60.814 230.439 61.768ZM240.446 64H239.15V51.94H240.446V64ZM246.202 64.018C244.564 64.018 243.61 63.37 243.61 61.48V56.224H242.116V55.108H243.628L243.934 52.84H244.906V55.108H247.714V56.224H244.906V61.552C244.906 62.596 245.392 62.83 246.544 62.83H247.714V63.874C247.408 63.928 246.85 64.018 246.202 64.018ZM250.895 64H249.599V51.94H250.895V56.764H250.967C251.309 55.918 252.227 54.928 254.027 54.928C256.349 54.928 257.339 56.476 257.339 58.51V64H256.061V58.834C256.061 56.908 255.413 56.062 253.613 56.062C251.831 56.062 250.895 56.89 250.895 58.888V64ZM262.36 64.18C260.74 64.18 259.516 63.352 259.516 61.858C259.516 60.31 260.668 59.626 262.612 59.356L265.744 58.924V58.276C265.744 56.71 265.078 56.08 263.404 56.08C261.784 56.08 261.028 56.71 261.028 58.132V58.402H259.786V58.258C259.786 56.404 261.208 54.928 263.512 54.928C265.888 54.928 266.968 56.458 266.968 58.438V64H265.798V62.362L265.708 62.344C265.186 63.37 264.052 64.18 262.36 64.18ZM260.776 61.768C260.776 62.686 261.352 63.1 262.72 63.1C264.25 63.1 265.744 62.308 265.744 60.202V59.896L262.72 60.328C261.298 60.526 260.776 60.814 260.776 61.768ZM274.646 67.132H273.35V55.108H274.52V56.836H274.574C274.97 55.702 276.032 54.928 277.706 54.928C280.208 54.928 281.594 56.746 281.594 59.572C281.594 62.362 280.28 64.18 277.85 64.18C276.14 64.18 275.042 63.28 274.646 62.308V67.132ZM274.646 60.328C274.646 62.146 275.726 63.064 277.49 63.064C279.218 63.064 280.298 62.272 280.298 59.572C280.298 56.836 279.236 56.044 277.49 56.044C275.726 56.044 274.646 56.962 274.646 58.798V60.328ZM286.234 64.18C284.614 64.18 283.39 63.352 283.39 61.858C283.39 60.31 284.542 59.626 286.486 59.356L289.618 58.924V58.276C289.618 56.71 288.952 56.08 287.278 56.08C285.658 56.08 284.902 56.71 284.902 58.132V58.402H283.66V58.258C283.66 56.404 285.082 54.928 287.386 54.928C289.762 54.928 290.842 56.458 290.842 58.438V64H289.672V62.362L289.582 62.344C289.06 63.37 287.926 64.18 286.234 64.18ZM284.65 61.768C284.65 62.686 285.226 63.1 286.594 63.1C288.124 63.1 289.618 62.308 289.618 60.202V59.896L286.594 60.328C285.172 60.526 284.65 60.814 284.65 61.768ZM294.658 64H293.362V51.94H294.658V64ZM300.554 64.18C298.232 64.18 297.152 62.578 297.152 60.454V55.108H298.448V60.274C298.448 62.2 299.222 63.046 300.968 63.046C302.606 63.046 303.722 62.182 303.722 60.094V55.108H305V64H303.83V62.038H303.776C303.416 63.064 302.408 64.18 300.554 64.18ZM311.12 64.18C308.69 64.18 307.358 63.154 307.358 61.084V61.048H308.618V61.264C308.618 62.488 309.122 63.082 311.138 63.082C312.794 63.082 313.226 62.614 313.226 61.714C313.226 60.814 312.668 60.49 311.318 60.238L309.842 59.986C308.402 59.716 307.358 59.05 307.358 57.484C307.358 55.954 308.654 54.928 310.76 54.928C312.794 54.928 314.288 55.972 314.288 57.97V58.06H313.046V57.916C313.046 56.854 312.632 56.044 310.724 56.044C309.104 56.044 308.6 56.566 308.6 57.466C308.6 58.366 309.05 58.672 310.382 58.924L311.894 59.212C313.442 59.5 314.468 60.184 314.468 61.66C314.468 63.244 313.172 64.18 311.12 64.18ZM320.003 64.018C318.365 64.018 317.411 63.37 317.411 61.48V56.224H315.917V55.108H317.429L317.735 52.84H318.707V55.108H321.515V56.224H318.707V61.552C318.707 62.596 319.193 62.83 320.345 62.83H321.515V63.874C321.209 63.928 320.651 64.018 320.003 64.018ZM324.644 64H323.348V55H324.518V56.494H324.608C324.896 55.666 325.76 54.928 327.074 54.928C328.91 54.928 329.612 56.242 329.612 57.772V58.276H328.316V57.97C328.316 56.584 327.884 56.044 326.606 56.044C325.22 56.044 324.644 56.674 324.644 58.114V64ZM332.583 53.92H331.305V51.94H332.583V53.92ZM332.583 64H331.305V55H332.583V64ZM338.628 64.18C336.198 64.18 334.866 63.154 334.866 61.084V61.048H336.126V61.264C336.126 62.488 336.63 63.082 338.646 63.082C340.302 63.082 340.734 62.614 340.734 61.714C340.734 60.814 340.176 60.49 338.826 60.238L337.35 59.986C335.91 59.716 334.866 59.05 334.866 57.484C334.866 55.954 336.162 54.928 338.268 54.928C340.302 54.928 341.796 55.972 341.796 57.97V58.06H340.554V57.916C340.554 56.854 340.14 56.044 338.232 56.044C336.612 56.044 336.108 56.566 336.108 57.466C336.108 58.366 336.558 58.672 337.89 58.924L339.402 59.212C340.95 59.5 341.976 60.184 341.976 61.66C341.976 63.244 340.68 64.18 338.628 64.18Z" fill="white"/>
</a>
<a href="/pollutants" style="pointer-events: bounding-box;" target="_blank" rel="noopener noreferrer" id="strontium">
<path d="M260.67 118.18C257.322 118.18 255.864 116.416 255.864 114.346V114.076H257.142V114.274C257.142 115.948 258.024 116.992 260.706 116.992C262.704 116.992 263.64 116.326 263.64 114.94C263.64 113.59 263.028 113.086 261.21 112.69L259.122 112.222C257.232 111.826 255.936 110.962 255.936 109.018C255.936 107.272 257.376 105.76 260.238 105.76C263.37 105.76 264.738 107.668 264.738 109.63V109.864H263.46V109.666C263.46 108.01 262.596 106.948 260.22 106.948C258.222 106.948 257.232 107.614 257.232 108.928C257.232 110.296 257.898 110.692 259.662 111.106L261.75 111.592C263.748 112.042 264.936 112.978 264.936 114.868C264.936 116.704 263.514 118.18 260.67 118.18ZM270.214 118.018C268.576 118.018 267.622 117.37 267.622 115.48V110.224H266.128V109.108H267.64L267.946 106.84H268.918V109.108H271.726V110.224H268.918V115.552C268.918 116.596 269.404 116.83 270.556 116.83H271.726V117.874C271.42 117.928 270.862 118.018 270.214 118.018ZM274.855 118H273.559V109H274.729V110.494H274.819C275.107 109.666 275.971 108.928 277.285 108.928C279.121 108.928 279.823 110.242 279.823 111.772V112.276H278.527V111.97C278.527 110.584 278.095 110.044 276.817 110.044C275.431 110.044 274.855 110.674 274.855 112.114V118ZM285.635 118.18C283.025 118.18 281.315 116.254 281.315 113.554C281.315 110.854 283.025 108.928 285.635 108.928C288.227 108.928 289.883 110.854 289.883 113.554C289.883 116.254 288.227 118.18 285.635 118.18ZM285.635 117.028C287.777 117.028 288.623 115.768 288.623 113.554C288.623 111.34 287.777 110.098 285.635 110.098C283.457 110.098 282.593 111.34 282.593 113.554C282.593 115.768 283.457 117.028 285.635 117.028ZM293.284 118H291.988V109.108H293.158V110.944H293.212C293.554 110.008 294.562 108.928 296.398 108.928C298.684 108.928 299.728 110.404 299.728 112.546V118H298.45V112.834C298.45 110.908 297.82 110.062 296.002 110.062C294.238 110.062 293.284 110.89 293.284 112.87V118ZM305.421 118.018C303.783 118.018 302.829 117.37 302.829 115.48V110.224H301.335V109.108H302.847L303.153 106.84H304.125V109.108H306.933V110.224H304.125V115.552C304.125 116.596 304.611 116.83 305.763 116.83H306.933V117.874C306.627 117.928 306.069 118.018 305.421 118.018ZM309.884 107.92H308.606V105.94H309.884V107.92ZM309.884 118H308.606V109H309.884V118ZM315.73 118.18C313.408 118.18 312.328 116.578 312.328 114.454V109.108H313.624V114.274C313.624 116.2 314.398 117.046 316.144 117.046C317.782 117.046 318.898 116.182 318.898 114.094V109.108H320.176V118H319.006V116.038H318.952C318.592 117.064 317.584 118.18 315.73 118.18ZM324.044 118H322.748V109.108H323.918V110.944H323.972C324.314 110.008 325.25 108.928 327.086 108.928C328.706 108.928 329.678 109.702 330.074 110.962H330.128C330.488 110.008 331.406 108.928 333.242 108.928C335.528 108.928 336.572 110.404 336.572 112.528V118H335.294V112.834C335.294 110.908 334.646 110.062 332.846 110.062C331.154 110.062 330.308 110.89 330.308 112.87V118H329.03V112.834C329.03 110.908 328.4 110.062 326.6 110.062C324.908 110.062 324.044 110.89 324.044 112.87V118ZM344.141 119.8H342.935V104.14H344.141V119.8ZM358.781 118H350.663V105.94H358.781V107.11H351.941V111.34H358.511V112.528H351.941V116.83H358.781V118ZM362.215 107.92H360.937V105.94H362.215V107.92ZM362.215 118H360.937V109H362.215V118ZM368.477 118.198C365.849 118.198 364.265 116.272 364.265 113.572C364.265 110.854 365.849 108.928 368.477 108.928C370.745 108.928 372.275 110.386 372.275 112.474V112.6H370.997V112.492C370.997 110.944 370.169 110.098 368.423 110.098C366.389 110.098 365.543 111.376 365.543 113.572C365.543 115.75 366.389 117.028 368.423 117.028C370.169 117.028 370.997 116.182 370.997 114.634V114.526H372.275V114.652C372.275 116.74 370.745 118.198 368.477 118.198ZM375.707 118H374.411V105.94H375.707V110.764H375.779C376.121 109.918 377.039 108.928 378.839 108.928C381.161 108.928 382.151 110.476 382.151 112.51V118H380.873V112.834C380.873 110.908 380.225 110.062 378.425 110.062C376.643 110.062 375.707 110.89 375.707 112.888V118ZM386.073 118H384.777V105.94H386.073V110.764H386.145C386.487 109.918 387.405 108.928 389.205 108.928C391.527 108.928 392.517 110.476 392.517 112.51V118H391.239V112.834C391.239 110.908 390.591 110.062 388.791 110.062C387.009 110.062 386.073 110.89 386.073 112.888V118ZM399.068 118.18C396.458 118.18 394.748 116.254 394.748 113.554C394.748 110.854 396.458 108.928 399.068 108.928C401.66 108.928 403.316 110.854 403.316 113.554C403.316 116.254 401.66 118.18 399.068 118.18ZM399.068 117.028C401.21 117.028 402.056 115.768 402.056 113.554C402.056 111.34 401.21 110.098 399.068 110.098C396.89 110.098 396.026 111.34 396.026 113.554C396.026 115.768 396.89 117.028 399.068 117.028ZM406.717 118H405.421V109H406.591V110.494H406.681C406.969 109.666 407.833 108.928 409.147 108.928C410.983 108.928 411.685 110.242 411.685 111.772V112.276H410.389V111.97C410.389 110.584 409.957 110.044 408.679 110.044C407.293 110.044 406.717 110.674 406.717 112.114V118ZM414.798 118H413.502V109.108H414.672V110.944H414.726C415.068 110.008 416.076 108.928 417.912 108.928C420.198 108.928 421.242 110.404 421.242 112.546V118H419.964V112.834C419.964 110.908 419.334 110.062 417.516 110.062C415.752 110.062 414.798 110.89 414.798 112.87V118ZM424.97 107.92H423.692V105.94H424.97V107.92ZM424.97 118H423.692V109H424.97V118ZM429.897 118.18C428.277 118.18 427.053 117.352 427.053 115.858C427.053 114.31 428.205 113.626 430.149 113.356L433.281 112.924V112.276C433.281 110.71 432.615 110.08 430.941 110.08C429.321 110.08 428.565 110.71 428.565 112.132V112.402H427.323V112.258C427.323 110.404 428.745 108.928 431.049 108.928C433.425 108.928 434.505 110.458 434.505 112.438V118H433.335V116.362L433.245 116.344C432.723 117.37 431.589 118.18 429.897 118.18ZM428.313 115.768C428.313 116.686 428.889 117.1 430.257 117.1C431.787 117.1 433.281 116.308 433.281 114.202V113.896L430.257 114.328C428.835 114.526 428.313 114.814 428.313 115.768ZM444.739 118.198C442.111 118.198 440.527 116.272 440.527 113.572C440.527 110.854 442.111 108.928 444.739 108.928C447.007 108.928 448.537 110.386 448.537 112.474V112.6H447.259V112.492C447.259 110.944 446.431 110.098 444.685 110.098C442.651 110.098 441.805 111.376 441.805 113.572C441.805 115.75 442.651 117.028 444.685 117.028C446.431 117.028 447.259 116.182 447.259 114.634V114.526H448.537V114.652C448.537 116.74 447.007 118.198 444.739 118.198ZM451.952 118H450.656V109H451.826V110.494H451.916C452.204 109.666 453.068 108.928 454.382 108.928C456.218 108.928 456.92 110.242 456.92 111.772V112.276H455.624V111.97C455.624 110.584 455.192 110.044 453.914 110.044C452.528 110.044 451.952 110.674 451.952 112.114V118ZM460.973 118.18C459.353 118.18 458.129 117.352 458.129 115.858C458.129 114.31 459.281 113.626 461.225 113.356L464.357 112.924V112.276C464.357 110.71 463.691 110.08 462.017 110.08C460.397 110.08 459.641 110.71 459.641 112.132V112.402H458.399V112.258C458.399 110.404 459.821 108.928 462.125 108.928C464.501 108.928 465.581 110.458 465.581 112.438V118H464.411V116.362L464.321 116.344C463.799 117.37 462.665 118.18 460.973 118.18ZM459.389 115.768C459.389 116.686 459.965 117.1 461.333 117.1C462.863 117.1 464.357 116.308 464.357 114.202V113.896L461.333 114.328C459.911 114.526 459.389 114.814 459.389 115.768ZM471.648 118.18C469.218 118.18 467.886 117.154 467.886 115.084V115.048H469.146V115.264C469.146 116.488 469.65 117.082 471.666 117.082C473.322 117.082 473.754 116.614 473.754 115.714C473.754 114.814 473.196 114.49 471.846 114.238L470.37 113.986C468.93 113.716 467.886 113.05 467.886 111.484C467.886 109.954 469.182 108.928 471.288 108.928C473.322 108.928 474.816 109.972 474.816 111.97V112.06H473.574V111.916C473.574 110.854 473.16 110.044 471.252 110.044C469.632 110.044 469.128 110.566 469.128 111.466C469.128 112.366 469.578 112.672 470.91 112.924L472.422 113.212C473.97 113.5 474.996 114.184 474.996 115.66C474.996 117.244 473.7 118.18 471.648 118.18ZM480.819 118.18C478.389 118.18 477.057 117.154 477.057 115.084V115.048H478.317V115.264C478.317 116.488 478.821 117.082 480.837 117.082C482.493 117.082 482.925 116.614 482.925 115.714C482.925 114.814 482.367 114.49 481.017 114.238L479.541 113.986C478.101 113.716 477.057 113.05 477.057 111.484C477.057 109.954 478.353 108.928 480.459 108.928C482.493 108.928 483.987 109.972 483.987 111.97V112.06H482.745V111.916C482.745 110.854 482.331 110.044 480.423 110.044C478.803 110.044 478.299 110.566 478.299 111.466C478.299 112.366 478.749 112.672 480.081 112.924L481.593 113.212C483.141 113.5 484.167 114.184 484.167 115.66C484.167 117.244 482.871 118.18 480.819 118.18ZM487.649 107.92H486.371V105.94H487.649V107.92ZM487.649 118H486.371V109H487.649V118ZM491.443 121.132H490.147V109.108H491.317V110.836H491.371C491.767 109.702 492.829 108.928 494.503 108.928C497.005 108.928 498.391 110.746 498.391 113.572C498.391 116.362 497.077 118.18 494.647 118.18C492.937 118.18 491.839 117.28 491.443 116.308V121.132ZM491.443 114.328C491.443 116.146 492.523 117.064 494.287 117.064C496.015 117.064 497.095 116.272 497.095 113.572C497.095 110.836 496.033 110.044 494.287 110.044C492.523 110.044 491.443 110.962 491.443 112.798V114.328ZM504.381 118.18C501.645 118.18 500.223 116.254 500.223 113.554C500.223 110.854 501.825 108.928 504.363 108.928C506.505 108.928 508.269 110.224 508.269 112.852C508.269 113.266 508.233 113.662 508.179 113.914H501.447C501.501 115.876 502.275 117.028 504.399 117.028C506.199 117.028 506.919 116.218 506.919 115.138V115.03H508.197V115.156C508.197 116.866 506.649 118.18 504.381 118.18ZM504.327 110.044C502.347 110.044 501.555 111.178 501.447 112.978H507.045C507.117 110.872 506.073 110.044 504.327 110.044ZM514.162 118.18C511.732 118.18 510.4 117.154 510.4 115.084V115.048H511.66V115.264C511.66 116.488 512.164 117.082 514.18 117.082C515.836 117.082 516.268 116.614 516.268 115.714C516.268 114.814 515.71 114.49 514.36 114.238L512.884 113.986C511.444 113.716 510.4 113.05 510.4 111.484C510.4 109.954 511.696 108.928 513.802 108.928C515.836 108.928 517.33 109.972 517.33 111.97V112.06H516.088V111.916C516.088 110.854 515.674 110.044 513.766 110.044C512.146 110.044 511.642 110.566 511.642 111.466C511.642 112.366 512.092 112.672 513.424 112.924L514.936 113.212C516.484 113.5 517.51 114.184 517.51 115.66C517.51 117.244 516.214 118.18 514.162 118.18Z" fill="white"/>
</a>
</svg>
