<svg width="1025" height="123" viewBox="0 0 1025 123" fill="none" xmlns="http://www.w3.org/2000/svg">
<path d="M127.824 65H124.416V31.832H142.512L145.2 34.52V47.672L142.128 50.744L145.344 54.008V65H141.936V54.968L139.296 52.28H127.824V65ZM141.792 46.712V34.856H127.824V49.256H139.248L141.792 46.712ZM170.386 42.152V65H167.506V62.408L164.914 65H154.69L151.954 62.264V53.624L154.69 50.888H167.17V42.392H155.266V46.568H152.098V42.152L154.834 39.416H167.698L170.386 42.152ZM167.17 53.432H155.17V62.12H164.434L167.17 59.672V53.432ZM193.242 29.816H196.506V65H193.482V62.456L190.986 65H180.762L178.026 62.264V42.152L180.762 39.416H193.242V29.816ZM181.29 61.928H190.554L193.242 59.48V42.488H181.29V61.928ZM207.828 34.136H204.324V30.584H207.828V34.136ZM207.732 65H204.468V39.416H207.732V65ZM218.216 39.416H231.272L233.96 42.152V62.264L231.272 65H218.216L215.48 62.264V42.152L218.216 39.416ZM230.696 61.928V42.488H218.743V61.928H230.696ZM259.542 42.152V65H256.662V62.408L254.07 65H243.846L241.11 62.264V53.624L243.846 50.888H256.326V42.392H244.422V46.568H241.254V42.152L243.99 39.416H256.854L259.542 42.152ZM256.326 53.432H244.326V62.12H253.59L256.326 59.672V53.432ZM282.111 61.928V56.264H285.327V62.264L282.639 65H269.919L267.183 62.264V42.152L269.919 39.416H282.639L285.327 42.152V48.152H282.111V42.488H270.447V61.928H282.111ZM303.68 65H295.952L293.216 62.264V42.296H289.568V39.416H293.216V34.472H296.48V39.416H303.008V42.296H296.48V61.928H303.68V65ZM312.078 34.136H308.574V30.584H312.078V34.136ZM311.982 65H308.718V39.416H311.982V65ZM329.522 65H325.538L317.714 44.648V39.416H320.978V44.024L327.554 61.448L334.13 44.024V39.416H337.394V44.648L329.522 65ZM358.052 62.072V56.552H361.268V62.264L358.58 65H345.716L342.98 62.264V42.152L345.716 39.416H358.58L361.268 42.152V52.904H346.243V62.072H358.052ZM358.052 42.344H346.243V50.408H358.052V42.344ZM388.174 65H384.334L377.854 44.648V39.416H381.118V44.024L386.446 61.448L392.878 44.024V39.416H396.142V44.024L402.622 61.352L407.902 44.024V39.416H411.166V44.648L404.686 65H400.846L394.558 48.056L388.174 65ZM434.714 42.152V65H431.834V62.408L429.242 65H419.018L416.282 62.264V53.624L419.018 50.888H431.498V42.392H419.594V46.568H416.426V42.152L419.162 39.416H432.026L434.714 42.152ZM431.498 53.432H419.498V62.12H428.762L431.498 59.672V53.432ZM457.811 62.168V58.952L442.643 47V42.152L445.379 39.416H458.003L460.691 42.152V47.48H457.523V42.248H445.907V45.464L461.075 57.416V62.264L458.387 65H445.139L442.403 62.264V57.752H445.571V62.168H457.811ZM479.602 65H471.874L469.138 62.264V42.296H465.49V39.416H469.138V34.472H472.402V39.416H478.93V42.296H472.402V61.928H479.602V65ZM499.052 62.072V56.552H502.268V62.264L499.58 65H486.716L483.98 62.264V42.152L486.716 39.416H499.58L502.268 42.152V52.904H487.243V62.072H499.052ZM499.052 42.344H487.243V50.408H499.052V42.344Z" fill="white"/>
<path d="M991 46L999.5 54L1008 46" stroke="white"/>
<path d="M43 96L68.3168 122H1025" stroke="white"/>
<circle cx="49" cy="49" r="48.5" stroke="white"/>
<mask id="path-5-inside-1_332_1302" fill="white">
<path d="M36.9053 49.0156H19.4366C18.7861 49.0141 18.1431 48.8771 17.5485 48.6134C16.954 48.3496 16.4208 47.9649 15.9832 47.4837C15.5363 46.9955 15.1962 46.4196 14.9845 45.7925C14.7728 45.1655 14.6942 44.5013 14.7536 43.8422C15.2028 38.9053 16.7198 34.1251 19.1996 29.8326C21.6794 25.5402 25.0626 21.8381 29.1149 18.9828C29.6481 18.6057 30.254 18.3439 30.8939 18.2138C31.5338 18.0838 32.1939 18.0884 32.8319 18.2275C33.4699 18.3665 34.072 18.6369 34.5998 19.0215C35.1276 19.406 35.5696 19.8962 35.8975 20.4609L44.6319 35.5781C44.8992 36.0414 44.9715 36.5919 44.8329 37.1085C44.6943 37.6251 44.3561 38.0655 43.8928 38.3328C43.4295 38.6001 42.879 38.6724 42.3624 38.5338C41.8458 38.3952 41.4054 38.057 41.1381 37.5937L32.4105 22.4765C32.3642 22.3955 32.3016 22.325 32.2266 22.2695C32.1516 22.214 32.0659 22.1747 31.9749 22.1541C31.8838 22.1336 31.7895 22.1322 31.698 22.1501C31.6064 22.1681 31.5196 22.2048 31.443 22.2582C27.8647 24.7781 24.8773 28.0463 22.6881 31.836C20.4988 35.6257 19.1601 39.8463 18.7647 44.205C18.7547 44.3067 18.7666 44.4095 18.7996 44.5062C18.8327 44.603 18.886 44.6916 18.9562 44.766C19.0158 44.8349 19.0896 44.89 19.1725 44.9277C19.2554 44.9654 19.3455 44.9847 19.4366 44.9843H36.9053C37.4399 44.9843 37.9526 45.1967 38.3306 45.5747C38.7086 45.9527 38.921 46.4654 38.921 47C38.921 47.5345 38.7086 48.0472 38.3306 48.4252C37.9526 48.8032 37.4399 49.0156 36.9053 49.0156ZM83.2446 43.8422C82.7953 38.9053 81.2783 34.1251 78.7986 29.8326C76.3188 25.5402 72.9356 21.8381 68.8832 18.9828C68.3501 18.6057 67.7442 18.3439 67.1043 18.2138C66.4643 18.0838 65.8043 18.0884 65.1663 18.2275C64.5282 18.3665 63.9261 18.6369 63.3983 19.0215C62.8705 19.406 62.4286 19.8962 62.1006 20.4609L53.3663 35.5781C53.099 36.0414 53.0267 36.5919 53.1653 37.1085C53.3039 37.6251 53.642 38.0655 54.1053 38.3328C54.5686 38.6001 55.1191 38.6724 55.6357 38.5338C56.1523 38.3952 56.5927 38.057 56.86 37.5937L65.5877 22.4765C65.6339 22.3955 65.6965 22.325 65.7715 22.2695C65.8465 22.214 65.9323 22.1747 66.0233 22.1541C66.1143 22.1336 66.2086 22.1322 66.3002 22.1501C66.3918 22.1681 66.4786 22.2048 66.5552 22.2582C70.1335 24.7781 73.1209 28.0463 75.3101 31.836C77.4993 35.6257 78.8381 39.8463 79.2335 44.205C79.2435 44.3067 79.2316 44.4095 79.1985 44.5062C79.1655 44.603 79.1121 44.6916 79.042 44.766C78.9824 44.8349 78.9086 44.89 78.8257 44.9277C78.7428 44.9654 78.6527 44.9847 78.5616 44.9843H61.0928C60.5583 44.9843 60.0456 45.1967 59.6676 45.5747C59.2896 45.9527 59.0772 46.4654 59.0772 47C59.0772 47.5345 59.2896 48.0472 59.6676 48.4252C60.0456 48.8032 60.5583 49.0156 61.0928 49.0156H78.5616C79.212 49.0141 79.855 48.8771 80.4496 48.6134C81.0442 48.3496 81.5773 47.9649 82.015 47.4837C82.4618 46.9955 82.8019 46.4196 83.0137 45.7925C83.2254 45.1655 83.304 44.5013 83.2446 43.8422ZM56.7928 56.4667C56.6632 56.2324 56.4881 56.0263 56.2779 55.8604C56.0677 55.6945 55.8265 55.5721 55.5685 55.5005C55.3105 55.4289 55.0407 55.4094 54.7751 55.4431C54.5094 55.4769 54.2532 55.5633 54.0213 55.6972C53.7894 55.8311 53.5865 56.0099 53.4245 56.2231C53.2624 56.4363 53.1445 56.6797 53.0776 56.9389C53.0107 57.1982 52.9961 57.4683 53.0347 57.7333C53.0733 57.9982 53.1643 58.2529 53.3024 58.4823L61.9763 73.5088C62.0234 73.5894 62.0532 73.679 62.0637 73.7718C62.0742 73.8646 62.0653 73.9585 62.0375 74.0477C62.0097 74.1368 61.9636 74.2192 61.9021 74.2895C61.8407 74.3598 61.7653 74.4166 61.6807 74.4561C57.7036 76.2866 53.3773 77.2345 48.9991 77.2345C44.6209 77.2345 40.2946 76.2866 36.3174 74.4561C36.2329 74.4166 36.1574 74.3598 36.096 74.2895C36.0346 74.2192 35.9885 74.1368 35.9607 74.0477C35.9329 73.9585 35.9239 73.8646 35.9345 73.7718C35.945 73.679 35.9747 73.5894 36.0218 73.5088L44.6957 58.4823C44.8339 58.2529 44.9249 57.9982 44.9635 57.7333C45.0021 57.4683 44.9875 57.1982 44.9206 56.9389C44.8537 56.6797 44.7357 56.4363 44.5737 56.2231C44.4117 56.0099 44.2088 55.8311 43.9769 55.6972C43.745 55.5633 43.4887 55.4769 43.2231 55.4431C42.9574 55.4094 42.6877 55.4289 42.4297 55.5005C42.1717 55.5721 41.9305 55.6945 41.7203 55.8604C41.5101 56.0263 41.335 56.2324 41.2053 56.4667L32.5381 71.4932C32.2111 72.0587 32.0054 72.6862 31.9343 73.3357C31.8631 73.9851 31.9281 74.6422 32.125 75.2652C32.3219 75.8881 32.6464 76.4632 33.0779 76.9538C33.5094 77.4444 34.0383 77.8397 34.631 78.1145C39.1389 80.1906 44.0429 81.2656 49.0058 81.2656C53.9687 81.2656 58.8727 80.1906 63.3806 78.1145C63.9721 77.8384 64.4998 77.4422 64.9298 76.9511C65.3599 76.4599 65.683 75.8847 65.8786 75.2618C66.0742 74.639 66.138 73.9823 66.066 73.3334C65.9939 72.6846 65.7875 72.0579 65.46 71.4932L56.7928 56.4667ZM48.9991 50.3593C49.6635 50.3593 50.313 50.1623 50.8655 49.7932C51.4179 49.4241 51.8485 48.8994 52.1027 48.2855C52.357 47.6717 52.4235 46.9962 52.2939 46.3446C52.1643 45.6929 51.8443 45.0943 51.3745 44.6245C50.9047 44.1547 50.3061 43.8348 49.6545 43.7051C49.0028 43.5755 48.3274 43.642 47.7135 43.8963C47.0997 44.1506 46.575 44.5812 46.2059 45.1336C45.8367 45.686 45.6397 46.3355 45.6397 47C45.6397 47.8909 45.9936 48.7454 46.6236 49.3754C47.2537 50.0054 48.1081 50.3593 48.9991 50.3593Z"/>
</mask>
<path d="M36.9053 49.0156H19.4366C18.7861 49.0141 18.1431 48.8771 17.5485 48.6134C16.954 48.3496 16.4208 47.9649 15.9832 47.4837C15.5363 46.9955 15.1962 46.4196 14.9845 45.7925C14.7728 45.1655 14.6942 44.5013 14.7536 43.8422C15.2028 38.9053 16.7198 34.1251 19.1996 29.8326C21.6794 25.5402 25.0626 21.8381 29.1149 18.9828C29.6481 18.6057 30.254 18.3439 30.8939 18.2138C31.5338 18.0838 32.1939 18.0884 32.8319 18.2275C33.4699 18.3665 34.072 18.6369 34.5998 19.0215C35.1276 19.406 35.5696 19.8962 35.8975 20.4609L44.6319 35.5781C44.8992 36.0414 44.9715 36.5919 44.8329 37.1085C44.6943 37.6251 44.3561 38.0655 43.8928 38.3328C43.4295 38.6001 42.879 38.6724 42.3624 38.5338C41.8458 38.3952 41.4054 38.057 41.1381 37.5937L32.4105 22.4765C32.3642 22.3955 32.3016 22.325 32.2266 22.2695C32.1516 22.214 32.0659 22.1747 31.9749 22.1541C31.8838 22.1336 31.7895 22.1322 31.698 22.1501C31.6064 22.1681 31.5196 22.2048 31.443 22.2582C27.8647 24.7781 24.8773 28.0463 22.6881 31.836C20.4988 35.6257 19.1601 39.8463 18.7647 44.205C18.7547 44.3067 18.7666 44.4095 18.7996 44.5062C18.8327 44.603 18.886 44.6916 18.9562 44.766C19.0158 44.8349 19.0896 44.89 19.1725 44.9277C19.2554 44.9654 19.3455 44.9847 19.4366 44.9843H36.9053C37.4399 44.9843 37.9526 45.1967 38.3306 45.5747C38.7086 45.9527 38.921 46.4654 38.921 47C38.921 47.5345 38.7086 48.0472 38.3306 48.4252C37.9526 48.8032 37.4399 49.0156 36.9053 49.0156ZM83.2446 43.8422C82.7953 38.9053 81.2783 34.1251 78.7986 29.8326C76.3188 25.5402 72.9356 21.8381 68.8832 18.9828C68.3501 18.6057 67.7442 18.3439 67.1043 18.2138C66.4643 18.0838 65.8043 18.0884 65.1663 18.2275C64.5282 18.3665 63.9261 18.6369 63.3983 19.0215C62.8705 19.406 62.4286 19.8962 62.1006 20.4609L53.3663 35.5781C53.099 36.0414 53.0267 36.5919 53.1653 37.1085C53.3039 37.6251 53.642 38.0655 54.1053 38.3328C54.5686 38.6001 55.1191 38.6724 55.6357 38.5338C56.1523 38.3952 56.5927 38.057 56.86 37.5937L65.5877 22.4765C65.6339 22.3955 65.6965 22.325 65.7715 22.2695C65.8465 22.214 65.9323 22.1747 66.0233 22.1541C66.1143 22.1336 66.2086 22.1322 66.3002 22.1501C66.3918 22.1681 66.4786 22.2048 66.5552 22.2582C70.1335 24.7781 73.1209 28.0463 75.3101 31.836C77.4993 35.6257 78.8381 39.8463 79.2335 44.205C79.2435 44.3067 79.2316 44.4095 79.1985 44.5062C79.1655 44.603 79.1121 44.6916 79.042 44.766C78.9824 44.8349 78.9086 44.89 78.8257 44.9277C78.7428 44.9654 78.6527 44.9847 78.5616 44.9843H61.0928C60.5583 44.9843 60.0456 45.1967 59.6676 45.5747C59.2896 45.9527 59.0772 46.4654 59.0772 47C59.0772 47.5345 59.2896 48.0472 59.6676 48.4252C60.0456 48.8032 60.5583 49.0156 61.0928 49.0156H78.5616C79.212 49.0141 79.855 48.8771 80.4496 48.6134C81.0442 48.3496 81.5773 47.9649 82.015 47.4837C82.4618 46.9955 82.8019 46.4196 83.0137 45.7925C83.2254 45.1655 83.304 44.5013 83.2446 43.8422ZM56.7928 56.4667C56.6632 56.2324 56.4881 56.0263 56.2779 55.8604C56.0677 55.6945 55.8265 55.5721 55.5685 55.5005C55.3105 55.4289 55.0407 55.4094 54.7751 55.4431C54.5094 55.4769 54.2532 55.5633 54.0213 55.6972C53.7894 55.8311 53.5865 56.0099 53.4245 56.2231C53.2624 56.4363 53.1445 56.6797 53.0776 56.9389C53.0107 57.1982 52.9961 57.4683 53.0347 57.7333C53.0733 57.9982 53.1643 58.2529 53.3024 58.4823L61.9763 73.5088C62.0234 73.5894 62.0532 73.679 62.0637 73.7718C62.0742 73.8646 62.0653 73.9585 62.0375 74.0477C62.0097 74.1368 61.9636 74.2192 61.9021 74.2895C61.8407 74.3598 61.7653 74.4166 61.6807 74.4561C57.7036 76.2866 53.3773 77.2345 48.9991 77.2345C44.6209 77.2345 40.2946 76.2866 36.3174 74.4561C36.2329 74.4166 36.1574 74.3598 36.096 74.2895C36.0346 74.2192 35.9885 74.1368 35.9607 74.0477C35.9329 73.9585 35.9239 73.8646 35.9345 73.7718C35.945 73.679 35.9747 73.5894 36.0218 73.5088L44.6957 58.4823C44.8339 58.2529 44.9249 57.9982 44.9635 57.7333C45.0021 57.4683 44.9875 57.1982 44.9206 56.9389C44.8537 56.6797 44.7357 56.4363 44.5737 56.2231C44.4117 56.0099 44.2088 55.8311 43.9769 55.6972C43.745 55.5633 43.4887 55.4769 43.2231 55.4431C42.9574 55.4094 42.6877 55.4289 42.4297 55.5005C42.1717 55.5721 41.9305 55.6945 41.7203 55.8604C41.5101 56.0263 41.335 56.2324 41.2053 56.4667L32.5381 71.4932C32.2111 72.0587 32.0054 72.6862 31.9343 73.3357C31.8631 73.9851 31.9281 74.6422 32.125 75.2652C32.3219 75.8881 32.6464 76.4632 33.0779 76.9538C33.5094 77.4444 34.0383 77.8397 34.631 78.1145C39.1389 80.1906 44.0429 81.2656 49.0058 81.2656C53.9687 81.2656 58.8727 80.1906 63.3806 78.1145C63.9721 77.8384 64.4998 77.4422 64.9298 76.9511C65.3599 76.4599 65.683 75.8847 65.8786 75.2618C66.0742 74.639 66.138 73.9823 66.066 73.3334C65.9939 72.6846 65.7875 72.0579 65.46 71.4932L56.7928 56.4667ZM48.9991 50.3593C49.6635 50.3593 50.313 50.1623 50.8655 49.7932C51.4179 49.4241 51.8485 48.8994 52.1027 48.2855C52.357 47.6717 52.4235 46.9962 52.2939 46.3446C52.1643 45.6929 51.8443 45.0943 51.3745 44.6245C50.9047 44.1547 50.3061 43.8348 49.6545 43.7051C49.0028 43.5755 48.3274 43.642 47.7135 43.8963C47.0997 44.1506 46.575 44.5812 46.2059 45.1336C45.8367 45.686 45.6397 46.3355 45.6397 47C45.6397 47.8909 45.9936 48.7454 46.6236 49.3754C47.2537 50.0054 48.1081 50.3593 48.9991 50.3593Z" fill="white" stroke="black" stroke-width="3" mask="url(#path-5-inside-1_332_1302)"/>
</svg>
