<svg width="98" height="98" viewBox="0 0 98 98" fill="none" xmlns="http://www.w3.org/2000/svg">
<circle cx="49" cy="49" r="48.5" stroke="white"/>
<path d="M35.2285 35.7581C31.8631 39.1223 29.9126 43.6376 29.7619 48.3797L29.4729 48.2513L29.5768 48.8902C29.6471 49.3228 29.7135 49.7602 29.7802 50.2C29.9577 51.37 30.1377 52.5568 30.4021 53.7167C30.9883 56.3104 31.2081 58.9734 31.055 61.628L31.0548 61.628L31.0545 61.6393C30.9951 63.9739 30.4816 66.2746 29.5426 68.413C29.3055 68.9347 29.0335 69.4399 28.7285 69.9251C28.5832 70.1349 28.3651 70.2835 28.1163 70.342C27.8656 70.401 27.6018 70.3641 27.3769 70.2385C27.152 70.113 26.9822 69.9079 26.9009 69.6637C26.8195 69.4194 26.8325 69.1536 26.9372 68.9184L26.9373 68.9184L26.939 68.9144C28.5444 65.186 29.174 61.1104 28.7687 57.0716C28.6857 56.0404 28.5399 55.0182 28.3961 54.0091C28.3819 53.9094 28.3677 53.8097 28.3535 53.7103C28.1958 52.5987 28.0477 51.5013 27.9885 50.397L27.9883 50.3941C27.7666 46.8246 28.4435 43.2565 29.9572 40.0161C31.9585 35.9866 35.2401 32.7342 39.2883 30.7686L39.2955 30.7651L39.3024 30.7613C43.7558 28.3437 48.9417 27.6431 53.8773 28.7924L53.8772 28.7925L53.8856 28.7943C54.2645 28.8728 54.6035 29.0817 54.8439 29.384C54.9057 29.5042 54.938 29.6376 54.938 29.773C54.938 29.8996 54.9098 30.0245 54.8556 30.1385C54.6033 30.3622 54.2768 30.4857 53.9382 30.4842H53.9366C53.1752 30.4842 52.4111 30.4286 51.6315 30.3718C51.484 30.3611 51.3359 30.3503 51.1872 30.3399C50.263 30.2749 49.32 30.2233 48.3767 30.284C43.4433 30.3029 38.7172 32.2705 35.2285 35.7581Z" fill="white" stroke="black" stroke-width="0.7"/>
<path d="M48.5618 33.1663L48.5618 33.1665L48.5716 33.1664C51.0032 33.1456 53.4129 33.6266 55.65 34.5793C57.8868 35.5318 59.9028 36.9353 61.5723 38.702C61.7317 38.8735 61.921 39.0526 62.1013 39.2231C62.2147 39.3304 62.3245 39.4343 62.4209 39.5307C62.6197 39.7313 62.7312 40.0023 62.7312 40.2847C62.7312 40.5606 62.6247 40.8257 62.4344 41.0248C62.3276 41.107 62.2061 41.1679 62.0763 41.2042C61.94 41.2423 61.7975 41.2525 61.6571 41.2343C61.5168 41.2161 61.3816 41.1697 61.2596 41.098C61.1376 41.0263 61.0314 40.9308 60.9472 40.8172L60.9466 40.8163C59.3656 38.695 57.2294 37.0513 54.7735 36.0664C52.3197 35.0823 49.642 34.794 47.0349 35.2332C44.2279 35.5975 41.5985 36.808 39.4968 38.7037C37.3967 40.5979 35.9232 43.0864 35.2724 45.8381C34.8322 47.2419 34.7972 48.7415 35.1715 50.1645L35.1713 50.1645L35.1741 50.174C36.0206 53.0595 36.342 56.0735 36.1228 59.0725C36.0187 59.9723 35.8165 60.858 35.5198 61.7138L35.5171 61.7214L35.5148 61.7291C35.4803 61.8459 35.4226 61.9546 35.3452 62.0488L35.6156 62.271L35.3452 62.0488C35.2678 62.143 35.1723 62.2208 35.0644 62.2774C34.9564 62.3341 34.8382 62.3685 34.7167 62.3787C34.5952 62.3889 34.4729 62.3746 34.357 62.3367L34.3471 62.3334L34.337 62.3308C34.0827 62.264 33.8643 62.1009 33.7282 61.876C33.5921 61.6511 33.549 61.3821 33.6079 61.126L33.608 61.126L33.6102 61.1151C34.4082 57.0606 34.1381 52.8684 32.8265 48.95C32.6796 48.0356 32.7459 47.0995 33.0202 46.2147L33.0261 46.1957L33.0298 46.1761C33.6587 42.8466 35.3244 39.8012 37.7887 37.4749C40.2511 35.1504 43.3851 33.6629 46.7432 33.2246C47.348 33.174 47.955 33.1545 48.5618 33.1663Z" fill="white" stroke="black" stroke-width="0.7"/>
<path d="M49.7128 25.1791L49.699 25.1782L49.685 25.1784C46.2069 25.2307 42.7502 25.7331 39.4012 26.673L39.4011 26.673L39.3974 26.6741C39.0333 26.7806 38.7709 26.7659 38.5942 26.6921C38.4289 26.6229 38.2908 26.4822 38.2064 26.2215L38.2066 26.2214L38.2029 26.2113C38.1648 26.1048 38.15 25.9915 38.1594 25.8788C38.1688 25.7661 38.2023 25.6567 38.2576 25.5581C38.3128 25.4595 38.3886 25.3738 38.4798 25.3069C38.571 25.2399 38.6755 25.1933 38.7862 25.1702L38.8164 25.1639L38.845 25.1524C42.9215 23.5153 47.329 22.8712 51.7036 23.2735C56.0782 23.6757 60.2943 25.1127 64.0036 27.4657L64.0036 27.4658L64.007 27.4679C66.7551 29.1674 69.1079 31.4348 70.9075 34.118C72.7071 36.8012 73.9118 39.8381 74.4409 43.0249L74.4421 43.032L74.4436 43.039C75.0959 46.1698 75.4422 49.3567 75.4777 52.5545C75.4684 52.8179 75.3586 53.0678 75.1707 53.253C74.9812 53.4396 74.7269 53.5459 74.4609 53.5496L74.453 53.5498L74.4452 53.5502C74.306 53.5584 74.1667 53.5379 74.036 53.4898C73.9053 53.4417 73.7858 53.3671 73.6853 53.2708C73.5847 53.1744 73.5051 53.0583 73.4515 52.9298L73.1285 53.0646L73.4515 52.9298C73.3979 52.8013 73.3714 52.6631 73.3737 52.5239L73.3737 52.5239V52.5181C73.3737 51.9738 73.4107 51.4296 73.4486 50.8716C73.4543 50.7878 73.46 50.7037 73.4656 50.6192C73.5081 49.9797 73.5444 49.3235 73.5138 48.663C73.4533 44.6648 72.4194 40.7415 70.5015 37.2324C68.5827 33.7217 65.8369 30.7313 62.5018 28.5202L62.5018 28.5202L62.4981 28.5178C59.7757 26.7616 56.6617 25.7046 53.4326 25.4405C52.5636 25.3271 51.6768 25.2826 50.8036 25.2389C50.4369 25.2205 50.0725 25.2023 49.7128 25.1791Z" fill="white" stroke="black" stroke-width="0.7"/>
<path d="M55.6493 55.7837L55.5291 55.818V56.082V56.0887V56.0954V56.102V56.1087V56.1154V56.1221V56.1288V56.1355V56.1422V56.1488V56.1555V56.1622V56.1689V56.1756V56.1822V56.1889V56.1956V56.2023V56.209V56.2156V56.2223V56.229V56.2357V56.2424V56.249V56.2557V56.2624V56.2691V56.2757V56.2824V56.2891V56.2957V56.3024V56.3091V56.3158V56.3224V56.3291V56.3358V56.3425V56.3491V56.3558V56.3625V56.3691V56.3758V56.3825V56.3891V56.3958V56.4025V56.4091V56.4158V56.4225V56.4291V56.4358V56.4425V56.4491V56.4558V56.4625V56.4691V56.4758V56.4825V56.4891V56.4958V56.5024V56.5091V56.5158V56.5224V56.5291V56.5357V56.5424V56.5491V56.5557V56.5624V56.569V56.5757V56.5824V56.589V56.5957V56.6023V56.609V56.6156V56.6223V56.6289V56.6356V56.6423V56.6489V56.6556V56.6622V56.6689V56.6755V56.6822V56.6888V56.6955V56.7021V56.7088V56.7154V56.7221V56.7287V56.7354V56.742V56.7487V56.7553V56.762V56.7686V56.7753V56.7819V56.7886V56.7952V56.8019V56.8085V56.8152V56.8218V56.8285V56.8351V56.8418V56.8484V56.8551V56.8617V56.8684V56.875V56.8816V56.8883V56.8949V56.9016V56.9082V56.9149V56.9215V56.9282V56.9348V56.9414V56.9481V56.9547V56.9614V56.968V56.9747V56.9813V56.9879V56.9946V57.0012V57.0079V57.0145V57.0211V57.0278V57.0344V57.0411V57.0477V57.0543V57.061V57.0676V57.0743V57.0809V57.0875V57.0942V57.1008V57.1074V57.1141V57.1207V57.1274V57.134V57.1406V57.1473V57.1539V57.1605V57.1672V57.1738V57.1804V57.1871V57.1937V57.2004V57.207V57.2136V57.2203V57.2269V57.2335V57.2402V57.2468V57.2534V57.2601V57.2667V57.2733V57.28V57.2866V57.2932V57.2999V57.3065V57.3131V57.3198V57.3264V57.333V57.3397V57.3463V57.3529V57.3596V57.3662V57.3728V57.3795V57.3861V57.3927V57.3993V57.406V57.4126V57.4192V57.4259V57.4325V57.4391V57.4458V57.4524V57.459V57.4657V57.4723V57.4789V57.4855V57.4922V57.4988V57.5054V57.5121V57.5187V57.5253V57.532V57.5386V57.5452V57.5518V57.5585V57.5651V57.5717V57.5784V57.585V57.5916V57.5982V57.6049V57.6115V57.6181V57.6248V57.6314V57.638V57.6447V57.6513V57.6579V57.6645V57.6712V57.6778V57.6844V57.6911V57.6977V57.7043V57.7109V57.7176V57.7242V57.7308V57.7374V57.7441V57.7507V57.7573V57.764V57.7706V57.7772V57.7838V57.7905V57.7971V57.8037V57.8104V57.817V57.8236V57.8302V57.8369V57.8435V57.8501V57.8568V57.8634V57.87V57.8766V57.8833V57.8899V57.8965V57.9032V57.9098V57.9164V57.923V57.9297V57.9363V57.9429V57.9496V57.9562V57.9628V57.9694V57.9761V57.9827V57.9893V57.996V58.0026V58.0092V58.0159V58.0225V58.0291V58.0357V58.0424V58.049V58.0556V58.0623V58.0689V58.0755V58.0821V58.0888V58.0954V58.102V58.1087V58.1153V58.1219V58.1286V58.1352V58.1418V58.1485V58.1551V58.1617V58.1683V58.175V58.1816V58.1882V58.1949V58.2015V58.2081V58.2148V58.2214V58.228V58.2347V58.2413V58.2479V58.2546V58.2612V58.2678V58.2745V58.2811V58.2877V58.2944V58.301V58.3076V58.3143V58.3209V58.3275V58.3342V58.3408V58.3474V58.3541V58.3607V58.3673V58.374V58.3806V58.3872V58.3939V58.4005V58.4072V58.4138V58.4204V58.4271V58.4337V58.4403V58.447V58.4536V58.4603V58.4669V58.4735V58.4802V58.4868V58.4934V58.5001V58.5067V58.5134V58.52V58.5266V58.5333V58.5399V58.5466V58.5532V58.5598V58.5665V58.5731V58.5798V58.5864V58.593V58.5997V58.6063V58.613V58.6196V58.6263V58.6329V58.6395V58.6462V58.6528V58.6595V58.6661V58.6728V58.6794V58.686V58.6927V58.6993V58.706V58.7126V58.7193V58.7259V58.7326V58.7392V58.7459V58.7525V58.7592V58.7658V58.7725V58.7791V58.7857V58.7924V58.799V58.8057V58.8123V58.819V58.8256V58.8323V58.8389V58.8456V58.8523V58.8589V58.8656V58.8722V58.8789V58.8855V58.8922V58.8988V58.9055V58.9121V58.9188V58.9254V58.9321V58.9387V58.9454V58.9521V58.9587V58.9654V58.972V58.9787V58.9853V58.992V58.9987V59.0053V59.012V59.0186V59.0253V59.032V59.0386V59.0453V59.0519V59.0586V59.0653V59.0719V59.0786V59.0852V59.0919V59.0986V59.1052V59.1119V59.1186V59.1252V59.1319V59.1386V59.1452V59.1519V59.1586V59.1652V59.1719V59.1786V59.1852V59.1919V59.1986V59.2052V59.2119V59.2186V59.2252V59.2319V59.2386V59.2453V59.2519V59.2586V59.2653V59.2719V59.2786V59.2853V59.292V59.2986V59.3053V59.312V59.3187V59.3253V59.332V59.3387V59.3454V59.3521V59.3587V59.3654V59.3721V59.3788V59.3855V59.3921V59.3988V59.4055V59.4122V59.4189V59.4255V59.4322V59.4389V59.4456V59.4523V59.459V59.4656V59.4723V59.479V59.4857C55.5291 60.0111 55.4036 60.2596 55.2761 60.3774C55.151 60.4929 54.946 60.5541 54.6139 60.5192C54.3184 60.4881 54.1428 60.3724 54.0377 60.2095C53.9247 60.0343 53.8591 59.7512 53.9032 59.3285C54.3623 56.0997 54.2936 52.8179 53.6997 49.6112L53.6999 49.6111L53.6972 49.5989C53.4721 48.5868 53.1205 47.6069 52.6508 46.6825C52.3417 45.9746 51.8184 45.3814 51.1543 44.9862C50.4897 44.5908 49.7178 44.4137 48.9474 44.4801C48.1559 44.5109 47.3903 44.7704 46.7433 45.2275C46.0938 45.6862 45.592 46.3241 45.2991 47.0632C44.6342 48.741 44.4467 50.5698 44.7571 52.3474C44.855 53.2268 44.9786 54.0954 45.1015 54.9595C45.3117 56.4365 45.5199 57.9004 45.5954 59.3834L45.5953 59.3834L45.5956 59.3883C46.0071 65.7071 44.6846 72.0182 41.7708 77.6406C41.713 77.7453 41.663 77.8573 41.6187 77.958C41.6125 77.9722 41.6064 77.9861 41.6003 77.9999C41.5609 78.0901 41.5251 78.1718 41.4859 78.25L41.4715 78.279L41.4625 78.3101C41.4238 78.445 41.3558 78.5697 41.2632 78.6752C41.1707 78.7807 41.0559 78.8645 40.9271 78.9204C40.7983 78.9764 40.6587 79.0033 40.5184 78.999C40.378 78.9947 40.2403 78.9594 40.1152 78.8956L40.1153 78.8955L40.1085 78.8923C39.9756 78.8281 39.8577 78.7367 39.7625 78.624C39.6672 78.5113 39.5968 78.3799 39.5557 78.2383L39.2195 78.3358L39.5557 78.2383C39.5146 78.0966 39.5038 77.9479 39.5239 77.8017C39.5441 77.6556 39.5948 77.5154 39.6727 77.3901L39.6827 77.374L39.691 77.3569C39.8667 76.9913 40.0467 76.6239 40.2279 76.2542C40.8038 75.0791 41.3906 73.8817 41.8825 72.6528C43.5562 68.6655 44.3375 64.3605 44.1719 60.0395C44.1713 59.1819 44.0576 58.3308 43.922 57.4974C43.8811 57.2464 43.8385 56.9982 43.7963 56.7519C43.6963 56.1692 43.598 55.5964 43.5284 55.019L43.5287 55.0189L43.5265 55.0055C43.1255 52.5015 43.199 49.9444 43.7431 47.4675L43.7455 47.4565L43.7472 47.4454C43.8925 46.4966 44.3289 45.6164 44.996 44.9261C45.6632 44.2358 46.5283 43.7696 47.4718 43.5918L47.4852 43.5892L47.4984 43.5857C48.5443 43.3026 49.6484 43.317 50.6865 43.6273C51.7246 43.9376 52.6554 44.5315 53.374 45.3421L53.3749 45.3431C54.4207 46.5136 55.0515 47.9961 55.1696 49.5611L55.1695 49.5611L55.1701 49.567C55.3182 51.1662 55.4333 52.7749 55.5483 54.3827C55.5817 54.8498 55.6151 55.3169 55.6493 55.7837Z" fill="white" stroke="black" stroke-width="0.7"/>
<path d="M66.2441 25.7687L66.2441 25.7686L66.2414 25.7666C63.0338 23.4162 59.3363 21.8209 55.4252 21.1001C55.0295 21.021 54.6472 20.8858 54.2899 20.6986C54.0915 20.5767 53.9459 20.3849 53.8819 20.161C53.8171 19.9341 53.8408 19.6911 53.9483 19.481L53.9567 19.4645L53.9634 19.4473C54.0492 19.2244 54.2159 19.0419 54.4303 18.9361C54.6446 18.8303 54.891 18.809 55.1203 18.8765L55.1352 18.8808L55.1504 18.8839C62.8446 20.4233 69.729 24.6757 74.5485 30.8659C77.6061 34.9868 79.5539 39.8235 80.2054 44.9126C80.2077 45.2554 80.2619 45.6121 80.3123 45.9444C80.3328 46.0794 80.3527 46.2103 80.3682 46.3347C80.3898 46.5072 80.3942 46.6706 80.3989 46.8492C80.4002 46.8978 80.4016 46.9474 80.4033 46.9987C80.4105 47.2148 80.4248 47.4518 80.4854 47.6962C80.4786 48.1424 80.3675 48.471 80.2025 48.6861C80.0387 48.8997 79.8014 49.0296 79.4771 49.045C79.1582 49.0602 78.9379 48.955 78.7737 48.7667C78.5971 48.5642 78.4632 48.2382 78.3982 47.7838C77.1471 38.9681 73.648 31.3045 66.2441 25.7687Z" fill="white" stroke="black" stroke-width="0.7"/>
<path d="M70.6909 60.8177L70.8554 60.7994C70.7205 64.2279 70.5849 67.6554 70.4308 71.0827L70.4298 71.1064L70.4319 71.1299C70.4454 71.2793 70.4262 71.4297 70.3755 71.5708C70.3249 71.7119 70.2441 71.8404 70.1388 71.9471C70.0334 72.0538 69.9061 72.1363 69.7655 72.1888L69.888 72.5167L69.7655 72.1888C69.628 72.2402 69.4812 72.2617 69.3348 72.2518C69.1896 72.2312 69.0499 72.1814 68.9242 72.1056C68.7958 72.0281 68.6846 71.9249 68.5978 71.8026C68.511 71.6802 68.4504 71.5414 68.4197 71.3946C68.389 71.2478 68.3889 71.0962 68.4193 70.9493L68.4236 70.9288L68.4254 70.9078C68.9707 64.4941 69.0447 58.0491 68.6469 51.6246C68.6233 49.0753 68.325 46.536 67.7569 44.0507L67.7545 44.0404L67.7515 44.0301C66.3358 39.207 63.1268 35.1086 58.7835 32.5763C58.4299 32.3563 58.2377 32.0675 58.1879 31.8149C58.1433 31.5893 58.2042 31.3644 58.4204 31.1803C58.7665 31.0517 59.1491 31.0575 59.4919 31.1979L59.4999 31.2012L59.508 31.2041C61.4251 31.8807 63.1392 33.0321 64.4904 34.5505L64.4903 34.5506L64.4959 34.5565C67.3888 37.6593 69.3074 41.5423 70.0141 45.7244C70.3991 48.4085 70.6251 51.1129 70.6909 53.8236V53.8323V53.8452V53.8581V53.871V53.8839V53.8968V53.9097V53.9226V53.9355V53.9485V53.9614V53.9743V53.9872V54.0001V54.013V54.0259V54.0388V54.0517V54.0646V54.0775V54.0904V54.1033V54.1162V54.1291V54.142V54.1549V54.1678V54.1807V54.1936V54.2065V54.2194V54.2324V54.2453V54.2582V54.2711V54.284V54.2969V54.3098V54.3227V54.3356V54.3485V54.3614V54.3743V54.3872V54.4001V54.413V54.4259V54.4388V54.4517V54.4646V54.4775V54.4905V54.5034V54.5163V54.5292V54.5421V54.555V54.5679V54.5808V54.5937V54.6066V54.6195V54.6324V54.6453V54.6582V54.6711V54.684V54.6969V54.7098V54.7227V54.7356V54.7485V54.7615V54.7744V54.7873V54.8002V54.8131V54.826V54.8389V54.8518V54.8647V54.8776V54.8905V54.9034V54.9163V54.9292V54.9421V54.955V54.9679V54.9808V54.9937V55.0066V55.0196V55.0325V55.0454V55.0583V55.0712V55.0841V55.097V55.1099V55.1228V55.1357V55.1486V55.1615V55.1744V55.1873V55.2002V55.2131V55.226V55.2389V55.2518V55.2647V55.2776V55.2906V55.3035V55.3164V55.3293V55.3422V55.3551V55.368V55.3809V55.3938V55.4067V55.4196V55.4325V55.4454V55.4583V55.4712V55.4841V55.497V55.5099V55.5228V55.5357V55.5486V55.5616V55.5745V55.5874V55.6003V55.6132V55.6261V55.639V55.6519V55.6648V55.6777V55.6906V55.7035V55.7164V55.7293V55.7422V55.7551V55.768V55.7809V55.7938V55.8067V55.8196V55.8326V55.8455V55.8584V55.8713V55.8842V55.8971V55.91V55.9229V55.9358V55.9487V55.9616V55.9745V55.9874V56.0003V56.0132V56.0261V56.039V56.0519V56.0648V56.0777V56.0906V56.1036V56.1165V56.1294V56.1423V56.1552V56.1681V56.181V56.1939V56.2068V56.2197V56.2326V56.2455V56.2584V56.2713V56.2842V56.2971V56.31V56.3229V56.3358V56.3487V56.3616V56.3746V56.3875V56.4004V56.4133V56.4262V56.4391V56.452V56.4649V56.4778V56.4907V56.5036V56.5165V56.5294V56.5423V56.5552V56.5681V56.581V56.5939V56.6068V56.6197V56.6326V56.6456V56.6585V56.6714V56.6843V56.6972V56.7101V56.723V56.7359V56.7488V56.7617V56.7746V56.7875V56.8004V56.8133V56.8262V56.8391V56.852V56.8649V56.8778V56.8907V56.9036V56.9166V56.9295V56.9424V56.9553V56.9682V56.9811V56.994V57.0069V57.0198V57.0327V57.0456V57.0585V57.0714V57.0843V57.0972V57.1101V57.123V57.1359V57.1488V57.1617V57.1746V57.1876V57.2005V57.2134V57.2263V57.2392V57.2521V57.265V57.2779V57.2908V57.3037V57.3166V57.3295V57.3424V57.3553V57.3682V57.3811V57.394V57.4069V57.4198V57.4327V57.4457V57.4586V57.4715V57.4844V57.4973V57.5102V57.5231V57.536V57.5489V57.5618V57.5747V57.5876V57.6005V57.6134V57.6263V57.6392V57.6521V57.665V57.6779V57.6908V57.7037V57.7167V57.7296V57.7425V57.7554V57.7683V57.7812V57.7941V57.807V57.8199V57.8328V57.8457V57.8586V57.8715V57.8844V57.8973V57.9102V57.9231V57.936V57.9489V57.9618V57.9747V57.9876V58.0006V58.0135V58.0264V58.0393V58.0522V58.0651V58.078V58.0909V58.1038V58.1167V58.1296V58.1425V58.1554V58.1683V58.1812V58.1941V58.207V58.2199V58.2328V58.2457V58.2587V58.2716V58.2845V58.2974V58.3103V58.3232V58.3361V58.349V58.3619V58.3748V58.3877V58.4006V58.4135V58.4264V58.4393V58.4522V58.4651V58.478V58.4909V58.5038V58.5167V58.5297V58.5426V58.5555V58.5684V58.5813V58.5942V58.6071V58.62V58.6329V58.6458V58.6587V58.6716V58.6845V58.6974V58.7103V58.7232V58.7361V58.749V58.7619V58.7748V58.7877V58.8007V58.8136V58.8265V58.8394V58.8523V58.8652V58.8781V58.891V58.9039V58.9168V58.9297V58.9426V58.9555V58.9684V58.9813V58.9942V59.0071V59.02V59.0329V59.0458V59.0587V59.0717V59.0846V59.0975V59.1104V59.1233V59.1362V59.1491V59.162V59.1749V59.1878V59.2007V59.2136V59.2265V59.2394V59.2523V59.2652V59.2781V59.291V59.3039V59.3168V59.3298V59.3427V59.3556V59.3685V59.3814V59.3943V59.4072V59.4201V59.433V59.4459V59.4588V59.4717V59.4846V59.4975V59.5104V59.5233V59.5362V59.5491V59.562V59.5749V59.5878V59.6007V59.6137V59.6266V59.6395V59.6524V59.6653V59.6782V59.6911V59.704V59.7169V59.7298V59.7427V59.7556V59.7685V59.7814V59.7943V59.8072V59.8201V59.833V59.8459V59.8588V59.8718V59.8847V59.8976V59.9105V59.9234V59.9363V59.9492V59.9621V59.975V59.9879V60.0008V60.0137V60.0266V60.0395V60.0524V60.0653V60.0782V60.0911V60.104V60.1169V60.1298V60.1428V60.1557V60.1686V60.1815V60.1944V60.2073V60.2202V60.2331V60.246V60.2589V60.2718V60.2847V60.2976V60.3105V60.3234V60.3363V60.3492V60.3621V60.375V60.3879V60.4009V60.4138V60.4267V60.8177Z" fill="white" stroke="black" stroke-width="0.7"/>
<path d="M60.916 56.0899L60.9159 56.0942C60.7594 63.1027 59.7953 70.0698 58.0428 76.8575L58.0392 76.8716L58.0367 76.8859C57.9944 77.1325 57.9322 77.3752 57.8506 77.6117L57.8505 77.612C57.8152 77.7145 57.7593 77.8086 57.6861 77.8885C57.613 77.9685 57.5242 78.0326 57.4252 78.0769C57.3262 78.1212 57.2191 78.1447 57.1107 78.1459C57.0039 78.1471 56.8979 78.1266 56.7991 78.0858C56.6067 77.9975 56.453 77.8421 56.3668 77.6488C56.2799 77.454 56.2675 77.2341 56.3319 77.0307L56.3343 77.0233L56.3363 77.0158C56.4863 76.4574 56.644 75.8969 56.8025 75.334C57.2517 73.738 57.7063 72.1226 58.005 70.4804L58.0053 70.4787C59.1405 64.0527 59.5053 57.5143 59.092 51.002C59.0371 48.2374 58.0828 45.566 56.3735 43.3919L56.3736 43.3919L56.3689 43.3861C55.3636 42.162 54.0444 41.234 52.5524 40.7013C51.071 40.1724 49.4745 40.053 47.9312 40.3553C47.5636 40.3604 47.2121 40.4443 46.8859 40.5357C46.7894 40.5628 46.696 40.5901 46.6045 40.6169C46.3643 40.6873 46.1366 40.7541 45.8953 40.8023L45.8861 40.8042L45.8771 40.8065C45.6488 40.8649 45.4068 40.8328 45.2017 40.7168C44.9967 40.6009 44.8445 40.41 44.7771 40.1844L44.7768 40.1833C44.742 40.0682 44.7308 39.9472 44.7441 39.8276C44.7573 39.7081 44.7946 39.5925 44.8537 39.4877C44.9128 39.3829 44.9926 39.2912 45.0881 39.218C45.1837 39.1449 45.293 39.0918 45.4096 39.062L45.4279 39.0573L45.4456 39.0507C47.5552 38.2616 49.8549 38.1324 52.0396 38.6801C54.2244 39.2279 56.1909 40.4266 57.6783 42.1175L57.6783 42.1175L57.6799 42.1193C58.61 43.1623 59.2707 44.4171 59.604 45.7741L59.606 45.782L59.6083 45.7898C60.5955 49.1305 61.0371 52.6085 60.916 56.0899Z" fill="white" stroke="black" stroke-width="0.7"/>
<path d="M23.641 61.1209L23.6419 61.1123L23.6423 61.1037C23.7463 58.8585 23.6177 56.6085 23.2585 54.3898C22.9804 52.2273 22.8811 50.0455 22.9614 47.8666C23.1232 44.0236 24.0726 40.2546 25.7506 36.7931C27.66 32.8632 30.6505 29.559 34.3717 27.2679L34.3849 27.2597L34.3974 27.2505C34.4983 27.1753 34.6137 27.1217 34.7363 27.0933C34.8589 27.0649 34.9861 27.0621 35.1098 27.0852L35.1741 26.7412L35.1098 27.0852C35.2335 27.1083 35.3511 27.1568 35.4552 27.2276C35.5571 27.2969 35.6439 27.386 35.7102 27.4896C35.7709 27.5989 35.81 27.7189 35.8252 27.843C35.8408 27.9697 35.8312 28.0982 35.797 28.2212L36.1342 28.3149L35.797 28.2212C35.7628 28.3443 35.7047 28.4594 35.626 28.56C35.5472 28.6605 35.4495 28.7446 35.3382 28.8073L35.3277 28.8133L35.3176 28.8199C32.5532 30.6415 30.214 33.0372 28.4592 35.8439C26.7051 38.6496 25.5762 41.8001 25.1492 45.081C24.8638 46.9602 24.7487 48.8614 24.8053 50.7613C24.8058 51.5905 24.9198 52.408 25.0529 53.2062C25.0876 53.4144 25.1235 53.6204 25.1591 53.8251C25.2618 54.4156 25.3625 54.9949 25.4284 55.5804C25.5422 56.5917 25.5827 57.4912 25.6231 58.3897C25.6463 58.9066 25.6696 59.4231 25.7068 59.9605C25.7313 61.9581 25.413 63.9452 24.7655 65.8352C24.6153 66.2396 24.4014 66.4883 24.1796 66.6088C23.9669 66.7243 23.7044 66.7455 23.3894 66.6117C23.0772 66.4791 22.9189 66.2852 22.8461 66.0479C22.7681 65.7933 22.7781 65.452 22.889 65.025C23.2623 63.7502 23.5141 62.4431 23.641 61.1209Z" fill="white" stroke="black" stroke-width="0.7"/>
<path d="M47.0465 20.4737L47.0462 20.4737C39.6512 20.902 32.7075 24.1691 27.6645 29.5928C25.7914 31.5487 24.1377 33.7034 22.7328 36.0185L22.7269 36.0283L22.7216 36.0384C22.6463 36.1831 22.5327 36.3044 22.3932 36.389C22.2537 36.4737 22.0936 36.5184 21.9304 36.5184C21.7673 36.5184 21.6072 36.4737 21.4677 36.389C21.3321 36.3068 21.2211 36.1899 21.1458 36.0506C21.0833 35.8979 21.0512 35.7344 21.0512 35.5693C21.0512 35.404 21.0834 35.2404 21.146 35.0875C23.2346 31.1069 26.1662 27.6291 29.7367 24.8967C33.3112 22.1611 37.44 20.2383 41.8347 19.2627L41.8372 19.2621C43.3753 18.9085 44.9089 18.7228 46.4636 18.5345C46.9113 18.4802 47.3607 18.4258 47.8125 18.3671L47.8126 18.3674L47.8263 18.365C47.9773 18.3392 48.1321 18.3467 48.2799 18.3869C48.4277 18.4272 48.5649 18.4991 48.682 18.5978L48.9071 18.3308L48.682 18.5978C48.799 18.6966 48.8931 18.8196 48.9576 18.9585C49.0221 19.0973 49.0556 19.2485 49.0556 19.4015C49.0556 19.5546 49.0221 19.7058 48.9576 19.8446C48.8931 19.9835 48.799 20.1065 48.682 20.2052C48.5649 20.3039 48.4277 20.3759 48.2799 20.4161C48.1321 20.4564 47.9773 20.4639 47.8263 20.4381L47.7872 20.4314L47.7475 20.4336L47.0465 20.4737Z" fill="white" stroke="black" stroke-width="0.7"/>
<path d="M35.0962 74.6899L35.0972 74.6881C36.7988 71.5259 37.981 68.1107 38.5983 64.5734C39.1566 61.5805 39.1565 58.5101 38.598 55.5172L38.5982 55.5171L38.5953 55.5043C37.8457 52.1836 37.9066 48.7314 38.7727 45.4391L38.7729 45.4381C39.0621 44.3246 39.6586 43.3147 40.4942 42.5238C40.7679 42.2775 41.0195 42.1609 41.2272 42.133C41.4264 42.1062 41.609 42.1568 41.7753 42.2953C41.9374 42.4304 42.0157 42.5987 42.0173 42.8001C42.0191 43.0122 41.9347 43.2879 41.7118 43.6087L41.7118 43.6087L41.7079 43.6145C40.695 45.1365 40.1143 46.9048 40.0277 48.7307C39.7948 51.4575 40.0419 54.2041 40.7578 56.8456C41.0937 58.3998 41.1394 60.0028 40.8924 61.5737L40.8905 61.5858L40.8895 61.598C40.5358 65.7068 39.5033 69.7285 37.8337 73.4996L37.8325 73.5025C37.5426 74.1735 37.2001 74.8206 36.8084 75.4377C36.6074 75.6803 36.3678 75.8879 36.0993 76.0522C35.6232 76.0294 35.2985 75.8297 35.1296 75.5913C34.9528 75.3417 34.9189 75.0149 35.0962 74.6899Z" fill="white" stroke="black" stroke-width="0.7"/>
<path d="M63.8332 75.2344L63.8289 75.2504L63.8263 75.2669C63.8063 75.3896 63.7597 75.5064 63.6897 75.6091L63.979 75.8062L63.6897 75.6091C63.6197 75.7119 63.5281 75.798 63.4212 75.8616L63.6001 76.1624L63.4212 75.8616C63.3143 75.9252 63.1948 75.9646 63.071 75.977C62.9482 75.9894 62.8242 75.975 62.7076 75.9347C62.4239 75.8295 62.2769 75.6576 62.2092 75.4466C62.1361 75.2183 62.1451 74.906 62.2629 74.5256L62.263 74.5257L62.2654 74.5169C62.5837 73.386 62.8211 72.2338 62.9759 71.0691C63.6554 66.8295 64.0048 62.5435 64.021 58.2498C64.1418 53.8796 63.618 49.5155 62.4665 45.2979L62.4574 45.2649L62.4422 45.2343C62.3697 45.0884 62.332 44.9279 62.3322 44.7651C62.3324 44.6023 62.3705 44.4417 62.4433 44.296C62.5161 44.1504 62.6218 44.0236 62.752 43.9258C62.8822 43.8279 63.0334 43.7616 63.1936 43.7321L63.1936 43.7321L63.1958 43.7317C63.359 43.7006 63.527 43.7051 63.6883 43.745C63.8495 43.7849 64.0002 43.8592 64.1301 43.9628L64.3484 43.6891L64.1301 43.9628C64.26 44.0664 64.3659 44.1967 64.4406 44.345C64.5153 44.4933 64.5571 44.6561 64.563 44.822L64.5638 44.843L64.567 44.8637C65.3271 49.7103 65.7473 54.6041 65.8246 59.5092C65.8485 64.8153 65.179 70.1017 63.8332 75.2344Z" fill="white" stroke="black" stroke-width="0.7"/>
<path d="M49.4345 70.8481L49.4344 70.8481L49.4304 70.8571C49.3297 71.0852 49.1452 71.266 48.915 71.3619L49.0495 71.685L48.915 71.3619C48.6847 71.4578 48.4263 71.4615 48.1934 71.3723L48.1934 71.3722L48.1859 71.3695C47.9598 71.2888 47.7706 71.1288 47.6536 70.9193L47.3486 71.0896L47.6536 70.9193C47.537 70.7106 47.4998 70.467 47.5487 70.2331C47.7073 69.5498 47.8859 68.8753 48.0634 68.2077L48.0841 68.1302C48.2545 67.4896 48.4234 66.8547 48.5692 66.233L48.5693 66.233L48.571 66.2247C49.2285 63.0789 49.4196 59.8535 49.1379 56.6522C48.9992 55.0441 48.7546 53.4287 48.5119 51.8263C48.4024 51.1033 48.2934 50.3829 48.1946 49.6671L48.1946 49.667L48.1936 49.6606C48.1226 49.2076 48.185 48.8327 48.3291 48.5638C48.4697 48.3014 48.6961 48.1222 49.0044 48.0546C49.312 47.9871 49.5864 48.0575 49.8065 48.2415C50.0286 48.4272 50.2195 48.7501 50.3021 49.225C50.3061 49.4982 50.3629 49.7624 50.4157 49.9951C50.421 50.0183 50.4262 50.0412 50.4314 50.0638C50.4823 50.2869 50.527 50.483 50.5431 50.6813C50.7231 53.4588 50.9627 56.1953 51.1032 57.682C51.1446 61.686 50.7379 65.6821 49.8907 69.5958C49.7784 70.0266 49.6256 70.4459 49.4345 70.8481Z" fill="white" stroke="black" stroke-width="0.7"/>
<path d="M21.1484 41.0481L21.1405 41.0665L21.1347 41.0858C19.5232 46.5059 19.6221 52.2908 21.4181 57.6527C21.4183 57.6533 21.4185 57.654 21.4188 57.6547L21.5977 58.2113L21.5978 58.2118C21.6745 58.4492 21.6608 58.7066 21.5592 58.9345C21.4575 59.1624 21.2752 59.3447 21.0473 59.4464L21.0333 59.4526L21.0199 59.4601C20.9189 59.5161 20.8076 59.5511 20.6927 59.5628C20.5778 59.5746 20.4617 59.5628 20.3515 59.5283L20.2469 59.8623L20.3515 59.5283C20.2413 59.4938 20.1393 59.4372 20.0516 59.362C19.9639 59.2869 19.8925 59.1947 19.8416 59.0911L19.8359 59.0795L19.8293 59.0683C19.2145 58.0204 18.7353 56.8988 18.4032 55.7302C18.0348 54.2998 17.8661 52.8775 17.6942 51.4285C17.6373 50.9492 17.5801 50.467 17.5152 49.9806C17.6755 46.7614 18.1278 43.5634 18.8664 40.426C18.9063 40.2621 18.9789 40.108 19.0798 39.9729C19.181 39.8374 19.3086 39.7239 19.4549 39.639C19.6011 39.5543 19.7631 39.5 19.931 39.4794C20.0985 39.4589 20.2683 39.4724 20.4304 39.5192C20.5831 39.5647 20.7244 39.6418 20.8451 39.7455L21.066 39.4884L20.8451 39.7455C20.9662 39.8495 21.0639 39.9779 21.1318 40.1224C21.1997 40.2668 21.2362 40.4239 21.2391 40.5835C21.242 40.743 21.211 40.9013 21.1484 41.0481Z" fill="white" stroke="black" stroke-width="0.7"/>
<path d="M55.4553 65.1495L55.4548 65.1528C55.2975 66.0657 55.1536 66.9707 55.0104 67.8718C54.6763 69.9725 54.3458 72.0513 53.8579 74.1568C53.3724 75.9475 52.714 77.6868 51.892 79.3501C51.812 79.4617 51.6776 79.5702 51.4864 79.6961C51.4333 79.731 51.373 79.7689 51.3092 79.809C51.1995 79.8779 51.0798 79.9531 50.9701 80.0301C50.8116 80.0097 50.6585 79.9564 50.521 79.8733L50.3399 80.1728L50.521 79.8732C50.351 79.7705 50.2106 79.6255 50.1132 79.4525C50.0158 79.2794 49.9648 79.0841 49.9652 78.8855C49.9656 78.6879 50.0169 78.4936 50.1142 78.3215C51.9428 75.2162 53.1036 71.7639 53.5225 68.185C53.6743 67.2891 53.756 66.392 53.8364 65.5105C53.8525 65.3346 53.8684 65.1593 53.8849 64.9848C53.9313 64.4932 54.0608 64.2288 54.1992 64.0935C54.3257 63.9698 54.5098 63.906 54.7997 63.9382C55.0536 63.9664 55.2359 64.0909 55.3489 64.2803C55.4662 64.4769 55.524 64.772 55.4553 65.1495Z" fill="white" stroke="black" stroke-width="0.7"/>
<path d="M74.2364 64.2849L74.2367 64.2849V64.2709V64.2592V64.2475V64.2357V64.224V64.2123V64.2005V64.1888V64.1771V64.1653V64.1536V64.1419V64.1301V64.1184V64.1067V64.095V64.0832V64.0715V64.0598V64.048V64.0363V64.0246V64.0128V64.0011V63.9894V63.9776V63.9659V63.9542V63.9425V63.9307V63.919V63.9073V63.8955V63.8838V63.8721V63.8604V63.8486V63.8369V63.8252V63.8134V63.8017V63.79V63.7783V63.7665V63.7548V63.7431V63.7314V63.7196V63.7079V63.6962V63.6845V63.6727V63.661V63.6493V63.6376V63.6259V63.6141V63.6024V63.5907V63.579V63.5672V63.5555V63.5438V63.5321V63.5204V63.5086V63.4969V63.4852V63.4735V63.4618V63.4501V63.4383V63.4266V63.4149V63.4032V63.3915V63.3798V63.3681V63.3563V63.3446V63.3329V63.3212V63.3095V63.2978V63.2861V63.2744V63.2627V63.251V63.2392V63.2275V63.2158V63.2041V63.1924V63.1807V63.169V63.1573V63.1456V63.1339V63.1222V63.1105V63.0988V63.0871V63.0754V63.0637V63.052V63.0403V63.0286V63.0169V63.0052V62.9935V62.9818V62.9701V62.9584V62.9467V62.9351V62.9234V62.9117V62.9V62.8883V62.8766V62.8649V62.8532V62.8415V62.8299V62.8182V62.8065V62.7948V62.7831V62.7715V62.7598V62.7481V62.7364V62.7247V62.7131V62.7014V62.6897V62.678V62.6664V62.6547V62.643V62.6313V62.6197V62.608V62.5963V62.5847V62.573V62.5613V62.5497V62.538V62.5263V62.5147V62.503V62.4914V62.4797V62.468V62.4564V62.4447V62.4331V62.4214V62.4098V62.3981V62.3865V62.3748V62.3632V62.3515V62.3399V62.3282V62.3166V62.3049V62.2933V62.2817V62.27V62.2584V62.2467V62.2351V62.2235V62.2118V62.2002V62.1886V62.1769V62.1653V62.1537V62.142V62.1304V62.1188V62.1072V62.0955V62.0839V62.0723V62.0607V62.0491V62.0374V62.0258V62.0142V62.0026V61.991V61.9794V61.9678V61.9561V61.9445V61.9329V61.9213V61.9097V61.8981V61.8865V61.8749V61.8633V61.8517V61.8401V61.8285V61.8169V61.8053V61.7937V61.7821V61.7706V61.759V61.7474V61.7358V61.7242V61.7126V61.7011V61.6895V61.6779V61.6663V61.6547V61.6432V61.6316V61.62V61.6085V61.5969V61.5853V61.5738V61.5622V61.5506V61.5391V61.5275V61.516V61.5044V61.4928V61.4813V61.4697V61.4582V61.4466V61.4351V61.4235V61.412V61.4005V61.3889V61.3774V61.3658V61.3543V61.3428V61.3312V61.3197V61.3082V61.2966V61.2851V61.2736V61.2621V61.2505V61.239V61.2275V61.216V61.2045V61.1929V61.1814V61.1699V61.1584V61.1469V61.1354V61.1239V61.1124V61.1009V61.0894V61.0779V61.0664V61.0549V61.0434V61.0319V61.0204V61.0089V60.9975V60.986V60.9745V60.963V60.9515V60.9401V60.9286V60.9171V60.9056V60.8942V60.8827V60.8712V60.8598V60.8483V60.8369V60.8254V60.8139V60.8025V60.791V60.7796V60.7681V60.7567V60.7452V60.7338V60.7224V60.7109V60.6995V60.688V60.6766V60.6652V60.6538V60.6423V60.6309V60.6195V60.6081V60.5966V60.5852V60.5738V60.5624V60.551V60.5396V60.5282V60.5167V60.5053V60.4939V60.4825V60.4711V60.4597V60.4484V60.437V60.4256V60.4142V60.4028V60.3914V60.38V60.3687V60.3573V60.3459V60.3345V60.3232V60.3118V60.3004V60.2891V60.2777V60.2663V60.255V60.2436V60.2323V60.2209V60.2096V60.1982V60.1869V60.1755V60.1642V60.1529V60.1415V60.1302V60.1189V60.1075V60.0962V60.0849V60.0736V60.0622V60.0509V60.0396V60.0283V60.017V60.0057V59.9944V59.9831V59.9718V59.9605V59.9492V59.9379V59.9266V59.9153V59.904V59.8927V59.8814V59.8701V59.8589V59.8476V59.8363V59.825V59.8138V59.8025V59.7912V59.78V59.7687V59.7575V59.7462V59.735V59.7237V59.7125V59.7012V59.69V59.6787V59.6675V59.6563V59.645V59.6338V59.6226V59.6114V59.6001V59.5889V59.5777V59.5665V59.5553V59.5441V59.5329V59.5217V59.5105V59.4993V59.4881V59.4769V59.4657V59.4545V59.4433V59.4321V59.4209V59.4098V59.3986V59.3874V59.3762V59.3651V59.3539V59.3428V59.3316V59.3204V59.3093V59.2981V59.287V59.2758V59.2647V59.2536V59.2424V59.2313V59.2201V59.209V59.1979V59.1868V59.1756V59.1645V59.1534V59.1423V59.1312V59.1201V59.109V59.0979V59.0868V59.0757V59.0646V59.0535V59.0424V59.0313V59.0202V59.0092V58.9981V58.987V58.9759V58.9649V58.9538V58.9428V58.9317V58.9206V58.9096V58.8985V58.8875V58.8764V58.8654V58.8544V58.8433V58.8323V58.8213V58.8102V58.7992V58.7882V58.7772V58.7662V58.7552V58.7441V58.7331V58.7221V58.7111V58.7001V58.6891V58.6782V58.6672V58.6562V58.6452V58.6342V58.6233V58.6123V58.6013V58.5903V58.5794V58.5684V58.5575V58.5465V58.5356V58.5246V58.5137V58.5027V58.4918V58.4809V58.4699V58.459V58.4481V58.4372V58.4262V58.4153V58.4044C74.2367 57.9107 74.3143 57.5469 74.4524 57.3085C74.5782 57.0915 74.7631 56.96 75.0623 56.9308L75.0623 56.9308L75.0681 56.9302C75.2321 56.9115 75.3982 56.9294 75.5543 56.9828C75.7104 57.0362 75.8527 57.1236 75.9709 57.2388C76.089 57.354 76.18 57.494 76.2373 57.6487C76.2946 57.8034 76.3167 57.9689 76.3021 58.1331L76.2998 58.159L76.3013 58.1848L76.4809 61.2178C76.4804 62.0636 76.4133 62.9052 76.3456 63.7543C76.3235 64.0307 76.3014 64.3079 76.2815 64.5863C76.2457 65.088 76.0888 65.3945 75.8955 65.5655C75.7062 65.7329 75.4304 65.8161 75.0546 65.766C74.7059 65.7195 74.5178 65.5698 74.4026 65.3562C74.274 65.1177 74.2173 64.7623 74.2364 64.2849Z" fill="white" stroke="black" stroke-width="0.7"/>
<path d="M34.6317 67.4054L34.6265 67.4163L34.6221 67.4276C34.1365 68.674 33.6265 69.8997 33.1171 71.1239C32.8503 71.7649 32.5838 72.4055 32.321 73.0484L32.295 73.1121V73.1809C32.295 73.1978 32.2858 73.2413 32.2086 73.3571C32.1961 73.3757 32.1803 73.3983 32.1624 73.4238C32.0977 73.5161 32.0056 73.6472 31.9467 73.7749L31.9387 73.7921L31.9327 73.8101C31.8875 73.9444 31.8135 74.0672 31.7159 74.1699C31.6183 74.2725 31.4993 74.3526 31.3674 74.4045L31.4956 74.7302L31.3674 74.4045C31.2355 74.4564 31.0939 74.4789 30.9524 74.4703C30.8119 74.4617 30.6749 74.4228 30.551 74.3562C30.4252 74.2848 30.3152 74.1887 30.2275 74.0737C30.1393 73.9579 30.0755 73.8253 30.0402 73.6841C30.0049 73.5429 29.9987 73.396 30.0221 73.2523C30.0455 73.1086 30.0979 72.9712 30.1761 72.8485L30.1859 72.8331L30.194 72.8169L32.3171 68.5722C32.4569 68.2925 32.5678 68.0012 32.6688 67.7209C32.6942 67.6505 32.7188 67.5812 32.7431 67.5128C32.8175 67.3035 32.8888 67.103 32.9691 66.9059L32.9765 66.8878L32.9818 66.8691C33.0376 66.6715 33.1546 66.4967 33.316 66.3698C33.4747 66.245 33.6683 66.1727 33.8699 66.1629C34.0119 66.1673 34.1507 66.2063 34.2743 66.2766L34.4473 65.9723L34.2743 66.2766C34.4007 66.3485 34.5072 66.4509 34.5839 66.5744L34.8812 66.3898L34.5839 66.5744C34.6606 66.698 34.7051 66.8387 34.7135 66.9838C34.7218 67.1289 34.6937 67.2739 34.6317 67.4054Z" fill="white" stroke="black" stroke-width="0.7"/>
<path d="M45.4566 79.2209L45.4434 79.2343L45.4316 79.2489C45.3719 79.3235 45.2977 79.3853 45.2134 79.4307L45.3792 79.7389L45.2134 79.4307C45.1292 79.476 45.0367 79.5039 44.9414 79.5126C44.8462 79.5214 44.7501 79.5109 44.659 79.4817L44.5523 79.815L44.659 79.4817C44.5678 79.4525 44.4836 79.4053 44.4112 79.3429L44.4003 79.3335L44.3887 79.325C44.2265 79.2068 44.1138 79.0328 44.0725 78.8364C44.0311 78.6401 44.064 78.4355 44.1648 78.262L44.1648 78.262L44.1663 78.2594C44.3179 77.9932 44.4706 77.7265 44.624 77.4585C45.2182 76.4209 45.8231 75.3643 46.4148 74.2454L46.4191 74.2372L46.423 74.2289C46.4927 74.0782 46.6145 73.9576 46.7658 73.8893C46.9167 73.8212 47.0869 73.8094 47.2457 73.8561C47.4592 73.9226 47.6465 74.0541 47.7816 74.2323C47.9024 74.3917 47.9758 74.5813 47.9944 74.7794C47.8681 75.0711 47.7495 75.362 47.6326 75.649C47.3606 76.3166 47.0973 76.9628 46.7649 77.5487C46.3966 78.1559 45.9575 78.7173 45.4566 79.2209Z" fill="white" stroke="black" stroke-width="0.7"/>
</svg>
